<svg width="113" height="113" viewBox="0 0 113 113" fill="none" xmlns="http://www.w3.org/2000/svg">
<circle cx="56.5" cy="56.5" r="56.5" fill="#FFEEF2"/>
<path d="M32 56C32 52.2288 32 50.3431 33.1716 49.1716C34.3431 48 36.2288 48 40 48H72C75.7712 48 77.6569 48 78.8284 49.1716C80 50.3431 80 52.2288 80 56V72C80 77.6569 80 80.4853 78.2426 82.2426C76.4853 84 73.6569 84 68 84H44C38.3431 84 35.5147 84 33.7574 82.2426C32 80.4853 32 77.6569 32 72V56Z" fill="#FF3366" fill-opacity="0.2" stroke="#FF3366" stroke-width="4"/>
<path d="M68 45V42C68 40.142 68 39.213 67.8769 38.4357C67.1992 34.1567 63.8433 30.8008 59.5643 30.1231C58.787 30 57.858 30 56 30V30C54.142 30 53.213 30 52.4357 30.1231C48.1567 30.8008 44.8008 34.1567 44.1231 38.4357C44 39.213 44 40.142 44 42V45" stroke="#FF3366" stroke-width="4" stroke-linecap="round"/>
<circle cx="56" cy="66" r="6" fill="#FF3366"/>
</svg>
