<svg width="31" height="31" viewBox="0 0 31 31" fill="none" xmlns="http://www.w3.org/2000/svg">
<g clip-path="url(#clip0_3119_2200)">
<path d="M30.5362 19.2495C28.4658 27.5531 20.0547 32.6067 11.7491 30.5359C3.44698 28.4658 -1.60702 20.055 0.464254 11.7521C2.53372 3.44749 10.9449 -1.60632 19.2479 0.463813C27.5529 2.53395 32.6067 10.9455 30.5362 19.2495Z" fill="#F7931A"/>
<path d="M22.3612 13.2799C22.6697 11.2171 21.0991 10.1083 18.9515 9.36865L19.6481 6.57456L17.9471 6.15074L17.2689 8.87127C16.8217 8.75976 16.3624 8.65471 15.906 8.55053L16.5891 5.81201L14.8891 5.38818L14.1921 8.18141C13.822 8.09716 13.4585 8.0139 13.1059 7.92617L13.1078 7.91738L10.7621 7.33166L10.3096 9.14829C10.3096 9.14829 11.5716 9.43754 11.545 9.45537C12.2338 9.62724 12.3584 10.0832 12.3377 10.4446L11.5441 13.6278C11.5915 13.6399 11.6531 13.6572 11.7209 13.6845C11.6642 13.6704 11.6038 13.6551 11.5411 13.64L10.4287 18.0992C10.3445 18.3084 10.1309 18.6225 9.64927 18.5032C9.66632 18.5279 8.41291 18.1948 8.41291 18.1948L7.56836 20.1418L9.78205 20.6935C10.1938 20.7968 10.5974 20.9048 10.9948 21.0064L10.2909 23.8326L11.99 24.2564L12.6871 21.4602C13.1512 21.5862 13.6017 21.7024 14.0427 21.812L13.348 24.595L15.0491 25.0188L15.7529 22.1979C18.6536 22.7468 20.8347 22.5255 21.7527 19.9022C22.4925 17.7901 21.7159 16.5718 20.1899 15.7773C21.3014 15.521 22.138 14.7899 22.3612 13.2799ZM18.4746 18.7292C17.9489 20.8413 14.3924 19.6996 13.2393 19.4133L14.1734 15.6691C15.3264 15.9568 19.0239 16.5265 18.4746 18.7292ZM19.0007 13.2493C18.5211 15.1705 15.561 14.1944 14.6007 13.9551L15.4476 10.5593C16.4079 10.7986 19.5001 11.2454 19.0007 13.2493Z" fill="white"/>
</g>
<defs>
<clipPath id="clip0_3119_2200">
<rect width="31" height="31" fill="white"/>
</clipPath>
</defs>
</svg>
