<svg width="38" height="38" viewBox="0 0 38 38" fill="none" xmlns="http://www.w3.org/2000/svg">
<circle cx="19" cy="19" r="19" transform="matrix(0 1 1 0 0 0)" fill="#32A071" fill-opacity="0.2"/>
<circle cx="15.8333" cy="15.8333" r="15.8333" transform="matrix(0 1 1 0 3.16699 3.16675)" fill="#32A071" fill-opacity="0.2"/>
<path d="M14.5862 23.4138L13.8362 23.4138L13.8362 24.1638L14.5862 24.1638L14.5862 23.4138ZM24.1942 14.8664C24.4871 14.5735 24.4871 14.0986 24.1942 13.8058C23.9013 13.5129 23.4265 13.5129 23.1336 13.8058L24.1942 14.8664ZM14.5862 16.1516L13.8362 16.1516V23.4138L14.5862 23.4138L15.3362 23.4138V16.1516L14.5862 16.1516ZM14.5862 23.4138L14.5862 24.1638L21.8483 24.1638L21.8483 23.4138L21.8483 22.6638L14.5862 22.6638L14.5862 23.4138ZM14.5862 23.4138L15.1165 23.9441L24.1942 14.8664L23.6639 14.3361L23.1336 13.8058L14.0558 22.8835L14.5862 23.4138Z" fill="#32A071"/>
</svg>
