<svg width="38" height="38" viewBox="0 0 38 38" fill="none" xmlns="http://www.w3.org/2000/svg">
<circle cx="19" cy="19" r="19" fill="#FF3366" fill-opacity="0.2"/>
<circle cx="19.0003" cy="19.0001" r="15.8333" fill="#FF3366" fill-opacity="0.2"/>
<path d="M23.4133 14.5864L23.4133 13.8364L24.1633 13.8364L24.1633 14.5864L23.4133 14.5864ZM14.8659 24.1945C14.573 24.4874 14.0982 24.4874 13.8053 24.1945C13.5124 23.9016 13.5124 23.4267 13.8053 23.1338L14.8659 24.1945ZM16.1511 14.5864L16.1511 13.8364H23.4133L23.4133 14.5864L23.4133 15.3364H16.1511L16.1511 14.5864ZM23.4133 14.5864L24.1633 14.5864L24.1633 21.8486L23.4133 21.8486L22.6633 21.8486L22.6633 14.5864L23.4133 14.5864ZM23.4133 14.5864L23.9436 15.1167L14.8659 24.1945L14.3356 23.6641L13.8053 23.1338L22.883 14.0561L23.4133 14.5864Z" fill="#FF3366"/>
</svg>
