<svg width="31" height="31" viewBox="0 0 31 31" fill="none" xmlns="http://www.w3.org/2000/svg">
<g clip-path="url(#clip0_3117_2170)">
<path d="M15.5004 29.2777C23.1097 29.2777 29.2782 23.1092 29.2782 15.4999C29.2782 7.89069 23.1097 1.72217 15.5004 1.72217C7.89118 1.72217 1.72266 7.89069 1.72266 15.4999C1.72266 23.1092 7.89118 29.2777 15.5004 29.2777Z" fill="white"/>
<mask id="mask0_3117_2170" style="mask-type:luminance" maskUnits="userSpaceOnUse" x="0" y="0" width="31" height="31">
<path d="M31 0H0V31H31V0Z" fill="white"/>
</mask>
<g mask="url(#mask0_3117_2170)">
<path d="M15.8718 10.2146H13.6572V14.5808H17.1415V16.4088H13.6572V20.7747H15.9803C16.5773 20.7747 20.8809 20.8422 20.8743 15.6951C20.8676 10.5479 16.7002 10.2146 15.8718 10.2146Z" fill="#C2A633"/>
<path d="M15.5 0C6.9395 0 0 6.9395 0 15.5C0 24.0605 6.9395 31 15.5 31C24.0605 31 31 24.0605 31 15.5C31 6.9395 24.0605 0 15.5 0ZM16.109 23.8715H10.4957V16.4089H8.51694V14.5808H10.4955V7.11776H15.3132C16.4529 7.11776 24.0019 6.88107 24.0019 15.6347C24.0019 24.5331 16.109 23.8715 16.109 23.8715Z" fill="#C2A633"/>
</g>
</g>
<defs>
<clipPath id="clip0_3117_2170">
<rect width="31" height="31" fill="white"/>
</clipPath>
</defs>
</svg>
