<svg width="31" height="33" viewBox="0 0 31 33" fill="none" xmlns="http://www.w3.org/2000/svg">
<g clip-path="url(#clip0_3117_2139)">
<mask id="mask0_3117_2139" style="mask-type:luminance" maskUnits="userSpaceOnUse" x="0" y="0" width="31" height="33">
<path d="M31 0.303711H0V32.4118H31V0.303711Z" fill="white"/>
</mask>
<g mask="url(#mask0_3117_2139)">
<mask id="mask1_3117_2139" style="mask-type:luminance" maskUnits="userSpaceOnUse" x="0" y="0" width="31" height="33">
<path d="M31 0.303711H0V32.4118H31V0.303711Z" fill="white"/>
</mask>
<g mask="url(#mask1_3117_2139)">
<path d="M26.1711 27.4117C32.0814 21.2901 32.0814 11.3649 26.1711 5.24332C20.2607 -0.878308 10.6781 -0.878308 4.76774 5.24332C-1.14263 11.3649 -1.14263 21.2901 4.76774 27.4117C10.6781 33.5334 20.2607 33.5334 26.1711 27.4117Z" fill="#A4C9FF"/>
<path d="M15.4766 32.2543C6.99661 32.2543 0.0976562 25.1087 0.0976562 16.3256C0.0976562 7.54253 6.99661 0.396973 15.4766 0.396973C23.9565 0.396973 30.8554 7.54253 30.8554 16.3256C30.8554 25.1087 23.9565 32.2543 15.4766 32.2543ZM15.4766 0.898664C7.26374 0.898664 0.582031 7.81921 0.582031 16.3256C0.582031 24.832 7.26374 31.7526 15.4766 31.7526C23.6894 31.7526 30.3711 24.832 30.3711 16.3256C30.3711 7.81921 23.6895 0.898664 15.4766 0.898664Z" fill="#A4C9FF"/>
<path d="M15.473 29.67C22.5882 29.67 28.3562 23.6959 28.3562 16.3264C28.3562 8.95684 22.5882 2.98267 15.473 2.98267C8.35783 2.98267 2.58984 8.95684 2.58984 16.3264C2.58984 23.6959 8.35783 29.67 15.473 29.67Z" fill="#A4C9FF"/>
<path d="M21.5984 16.3303H9.3584L14.964 27.5301C15.1801 27.962 15.7766 27.962 15.9927 27.5301L21.5984 16.3303Z" fill="#E0EBFC"/>
<path d="M15.473 29.921C8.2356 29.921 2.34766 23.8225 2.34766 16.3265C2.34766 8.83047 8.23572 2.73193 15.473 2.73193C22.7103 2.73193 28.5985 8.83034 28.5985 16.3265C28.5985 23.8226 22.7104 29.921 15.473 29.921ZM15.473 3.23362C8.50273 3.23362 2.83203 9.10706 2.83203 16.3265C2.83203 23.5459 8.50273 29.4193 15.473 29.4193C22.4433 29.4193 28.114 23.5459 28.114 16.3265C28.114 9.10706 22.4434 3.23362 15.473 3.23362Z" fill="#A4C9FF"/>
<path d="M15.4783 28.1045C15.1702 28.1045 14.8906 27.9285 14.749 27.6451L9.14341 16.4456C9.10441 16.3678 9.10759 16.2746 9.15142 16.1998C9.19525 16.1251 9.27387 16.0793 9.35835 16.0793H21.5984C21.6829 16.0793 21.7614 16.125 21.8054 16.1998C21.8493 16.2748 21.8524 16.3678 21.8134 16.4456L16.2078 27.6451C16.066 27.9285 15.7865 28.1045 15.4783 28.1045ZM9.75678 16.5809L15.179 27.4142C15.2381 27.5323 15.3501 27.6028 15.4784 27.6028C15.6068 27.6028 15.7187 27.5323 15.7779 27.4142L21.2002 16.5809H9.75678Z" fill="#3762CC"/>
<path d="M15.9927 5.13036C15.7766 4.69841 15.1801 4.69841 14.964 5.13036L9.3584 16.33L15.1915 21.6388C15.3555 21.7882 15.6011 21.7882 15.7651 21.6388L21.5981 16.33L15.9927 5.13036Z" fill="#E0EBFC"/>
<path d="M15.4782 22.0009C15.3186 22.0009 15.1589 21.9429 15.0316 21.8271L9.19851 16.5184C9.1149 16.4422 9.09216 16.3169 9.1434 16.2144L14.749 5.01472C14.8907 4.73139 15.1702 4.55542 15.4782 4.55542C15.7864 4.55542 16.0659 4.73139 16.2076 5.01472L21.8133 16.2144C21.8645 16.3168 21.8418 16.4422 21.7582 16.5184L15.9252 21.8271C15.7977 21.9429 15.638 22.0009 15.4782 22.0009ZM9.66067 16.271L15.3515 21.4502C15.4238 21.5159 15.5329 21.516 15.6054 21.4502L21.2961 16.271L15.7777 5.24562C15.7188 5.1276 15.6068 5.05711 15.4784 5.05711C15.35 5.05711 15.2382 5.1276 15.1789 5.24562L9.66067 16.271Z" fill="#3762CC"/>
<path d="M15.4766 28.1042C15.3429 28.1042 15.2344 27.9918 15.2344 27.8533V4.80626C15.2344 4.6678 15.3429 4.55542 15.4766 4.55542C15.6102 4.55542 15.7188 4.6678 15.7188 4.80626V27.8533C15.7188 27.9919 15.6102 28.1042 15.4766 28.1042Z" fill="#3762CC"/>
</g>
</g>
</g>
<defs>
<clipPath id="clip0_3117_2139">
<rect width="31" height="33" fill="white"/>
</clipPath>
</defs>
</svg>
