<svg width="18" height="18" viewBox="0 0 18 18" fill="none" xmlns="http://www.w3.org/2000/svg">
<circle cx="9" cy="9" r="8.5" fill="#32A071" stroke="white"/>
<rect width="11.6757" height="11.6757" transform="translate(17.0117 9.38721) rotate(136)" fill="#32A071"/>
<path d="M5.95721 11.9467L5.94849 12.4466L5.44856 12.4379L5.45729 11.938L5.95721 11.9467ZM10.8591 6.51789C11.0578 6.32607 11.3743 6.33159 11.5661 6.53023C11.7579 6.72887 11.7524 7.04541 11.5538 7.23723L11.2064 6.87756L10.8591 6.51789ZM10.0846 12.0187L10.0758 12.5187L5.94849 12.4466L5.95721 11.9467L5.96594 11.4468L10.0933 11.5188L10.0846 12.0187ZM5.95721 11.9467L5.45729 11.938L5.52933 7.81062L6.02925 7.81935L6.52918 7.82807L6.45714 11.9554L5.95721 11.9467ZM5.95721 11.9467L5.60988 11.587L10.8591 6.51789L11.2064 6.87756L11.5538 7.23723L6.30454 12.3064L5.95721 11.9467Z" fill="white"/>
</svg>
