<svg width="200" height="200" viewBox="0 0 200 200" fill="none" xmlns="http://www.w3.org/2000/svg">
<g clip-path="url(#clip0_3187_1933)">
<path d="M200 100C200 44.7715 155.228 0 100 0C44.7715 0 0 44.7715 0 100C0 155.228 44.7715 200 100 200C155.228 200 200 155.228 200 100Z" fill="#E9F1FE"/>
<path d="M200 100C200 44.7715 155.228 0 100 0C44.7715 0 0 44.7715 0 100C0 155.228 44.7715 200 100 200C155.228 200 200 155.228 200 100Z" fill="#F7F7F7"/>
<path d="M45.7148 93.1427C45.7148 85.0951 52.2386 78.5713 60.2862 78.5713H140.429C148.476 78.5713 155 85.0951 155 93.1427V200H45.7148V93.1427Z" fill="#F0F2F5"/>
<path d="M55.4287 98.0004C55.4287 92.6354 59.7779 88.2861 65.143 88.2861H135.572C140.937 88.2861 145.286 92.6354 145.286 98.0004V200H55.4287V98.0004Z" fill="white"/>
<mask id="mask0_3187_1933" style="mask-type:luminance" maskUnits="userSpaceOnUse" x="76" y="124" width="49" height="49">
<path d="M124.643 124.286H76.0713V172.857H124.643V124.286Z" fill="white"/>
</mask>
<g mask="url(#mask0_3187_1933)">
<path d="M123.88 154.482C120.636 167.493 107.459 175.41 94.4466 172.166C81.4402 168.923 73.5224 155.744 76.7673 142.735C80.0095 129.723 93.1868 121.805 106.195 125.048C119.206 128.292 127.123 141.472 123.88 154.483V154.482Z" fill="#F0F2F5"/>
<path d="M111.066 145.112C111.55 141.88 109.089 140.143 105.724 138.984L106.816 134.606L104.151 133.942L103.088 138.204C102.388 138.03 101.668 137.865 100.953 137.702L102.023 133.411L99.3597 132.747L98.2676 137.124C97.6878 136.992 97.1184 136.861 96.5659 136.724L96.569 136.71L92.894 135.792L92.1851 138.638C92.1851 138.638 94.1622 139.092 94.1206 139.12C95.1997 139.389 95.3949 140.103 95.3625 140.67L94.1191 145.657C94.1934 145.676 94.2898 145.703 94.3962 145.746C94.3073 145.724 94.2127 145.7 94.1145 145.676L92.3718 152.663C92.2399 152.991 91.9051 153.483 91.1506 153.296C91.1774 153.335 89.2137 152.813 89.2137 152.813L87.8906 155.863L91.3586 156.728C92.0038 156.889 92.636 157.059 93.2586 157.218L92.1559 161.646L94.8177 162.31L95.9098 157.929C96.637 158.126 97.3427 158.308 98.0336 158.48L96.9452 162.841L99.6103 163.505L100.713 159.085C105.258 159.945 108.675 159.598 110.113 155.488C111.272 152.178 110.055 150.27 107.665 149.025C109.406 148.623 110.716 147.478 111.066 145.112ZM104.977 153.65C104.154 156.959 98.5814 155.17 96.775 154.722L98.2384 148.855C100.045 149.306 105.838 150.199 104.977 153.65ZM105.802 145.064C105.05 148.074 100.413 146.545 98.9079 146.17L100.235 140.849C101.74 141.224 106.584 141.924 105.802 145.064Z" fill="white"/>
</g>
<path d="M73.6426 88.2861H127.071C127.071 90.9687 124.897 93.1433 122.214 93.1433H78.4997C75.8172 93.1433 73.6426 90.9687 73.6426 88.2861Z" fill="#F9FAFB"/>
<path d="M192.856 38.5712C192.856 24.3696 181.344 12.8569 167.142 12.8569C152.94 12.8569 141.428 24.3696 141.428 38.5712C141.428 52.7729 152.94 64.2855 167.142 64.2855C181.344 64.2855 192.856 52.7729 192.856 38.5712Z" fill="#EFEFEF"/>
<path fill-rule="evenodd" clip-rule="evenodd" d="M165.714 29.9997C162.558 29.9997 160 32.5581 160 35.714C160 38.8699 162.558 41.4283 165.714 41.4283C168.87 41.4283 171.428 38.8699 171.428 35.714C171.428 32.5581 168.87 29.9997 165.714 29.9997ZM157.143 35.714C157.143 30.9801 160.98 27.1426 165.714 27.1426C170.448 27.1426 174.285 30.9801 174.285 35.714C174.285 37.5652 173.699 39.2793 172.701 40.6805L179.581 47.561C180.139 48.1189 180.139 49.0234 179.581 49.5813C179.023 50.1392 178.119 50.1392 177.561 49.5813L170.68 42.7008C169.279 43.6986 167.565 44.2854 165.714 44.2854C160.98 44.2854 157.143 40.4479 157.143 35.714Z" fill="white"/>
</g>
<defs>
<clipPath id="clip0_3187_1933">
<rect width="200" height="200" fill="white"/>
</clipPath>
</defs>
</svg>
