<svg width="18" height="18" viewBox="0 0 18 18" fill="none" xmlns="http://www.w3.org/2000/svg">
<circle cx="9" cy="9" r="8.5" fill="#FF3366" stroke="white"/>
<rect width="11.6757" height="11.6757" transform="translate(0.500977 9.24316) rotate(-45)" fill="#FF3366"/>
<path d="M11.5088 6.49123L11.5088 5.99123L12.0088 5.99123L12.0088 6.49123L11.5088 6.49123ZM6.7024 12.0048C6.50713 12.2 6.19055 12.2 5.99529 12.0048C5.80003 11.8095 5.80003 11.4929 5.99529 11.2976L6.34884 11.6512L6.7024 12.0048ZM7.38084 6.49123L7.38084 5.99123H11.5088L11.5088 6.49123L11.5088 6.99123H7.38084L7.38084 6.49123ZM11.5088 6.49123L12.0088 6.49123L12.0088 10.6192H11.5088H11.0088L11.0088 6.49123L11.5088 6.49123ZM11.5088 6.49123L11.8624 6.84479L6.7024 12.0048L6.34884 11.6512L5.99529 11.2976L11.1553 6.13768L11.5088 6.49123Z" fill="white"/>
</svg>
