<svg width="38" height="38" viewBox="0 0 38 38" fill="none" xmlns="http://www.w3.org/2000/svg">
<circle cx="19" cy="19" r="19" fill="#9605C5" fill-opacity="0.2"/>
<circle cx="19.0003" cy="19.0001" r="15.8333" fill="#9605C5" fill-opacity="0.2"/>
<path d="M15.3988 10L14.8685 9.46967L15.3988 8.93934L15.9292 9.46967L15.3988 10ZM16.1489 23.5001C16.1489 23.9143 15.8131 24.2501 15.3989 24.2501C14.9846 24.2501 14.6489 23.9143 14.6489 23.5001L16.1489 23.5001ZM11.7988 13.6L11.2685 13.0697L14.8685 9.46967L15.3988 10L15.9292 10.5303L12.3292 14.1304L11.7988 13.6ZM15.3988 10L15.9292 9.46967L19.5292 13.0697L18.9989 13.6L18.4685 14.1304L14.8685 10.5303L15.3988 10ZM15.3988 10L16.1488 10L16.1489 23.5001L15.3989 23.5001L14.6489 23.5001L14.6488 10L15.3988 10Z" fill="#8003A9"/>
<path d="M22.6 28L22.0697 28.5303L22.6 29.0607L23.1304 28.5303L22.6 28ZM23.35 14.4999C23.35 14.0857 23.0142 13.7499 22.6 13.7499C22.1858 13.7499 21.85 14.0857 21.85 14.4999L23.35 14.4999ZM19 24.4L18.4697 24.9303L22.0697 28.5303L22.6 28L23.1304 27.4697L19.5303 23.8696L19 24.4ZM22.6 28L23.1304 28.5303L26.7304 24.9303L26.2 24.4L25.6697 23.8696L22.0697 27.4697L22.6 28ZM22.6 28L23.35 28L23.35 14.4999L22.6 14.4999L21.85 14.4999L21.85 28L22.6 28Z" fill="#8003A9"/>
</svg>
