<svg width="18" height="18" viewBox="0 0 18 18" fill="none" xmlns="http://www.w3.org/2000/svg">
<circle cx="9" cy="9" r="8.5" fill="#8003A9" stroke="white"/>
<path d="M7.92129 11.2222H5.22488V14M10.0784 6.77778H12.7748V4M5 7.33522C5.30237 6.56426 5.80862 5.89613 6.46121 5.40679C7.1138 4.91745 7.88723 4.6264 8.69233 4.56695C9.49742 4.5075 10.3021 4.68189 11.0157 5.07034C11.7294 5.45879 12.3225 6.04585 12.7285 6.76451M13 10.665C12.6976 11.436 12.1914 12.1041 11.5388 12.5935C10.8862 13.0828 10.1136 13.3735 9.30846 13.4329C8.50337 13.4924 7.69806 13.318 6.98439 12.9296C6.27072 12.5411 5.67724 11.9542 5.27122 11.2355" stroke="white" stroke-linecap="round" stroke-linejoin="round"/>
</svg>
