<svg width="18" height="18" viewBox="0 0 18 18" fill="none" xmlns="http://www.w3.org/2000/svg">
<circle cx="9" cy="9" r="8.5" fill="#FFB700" stroke="white"/>
<path d="M6.89955 4.00049L6.65206 3.753L6.89955 3.50551L7.14703 3.753L6.89955 4.00049ZM7.24955 11.1238C7.24955 11.3171 7.09285 11.4738 6.89955 11.4738C6.70625 11.4738 6.54955 11.3171 6.54955 11.1238L6.89955 11.1238L7.24955 11.1238ZM5 5.90004L4.75251 5.65255L6.65206 3.753L6.89955 4.00049L7.14703 4.24798L5.24749 6.14752L5 5.90004ZM6.89955 4.00049L7.14703 3.753L9.04658 5.65255L8.79909 5.90004L8.55161 6.14752L6.65206 4.24798L6.89955 4.00049ZM6.89955 4.00049L7.24955 4.00049L7.24955 11.1238L6.89955 11.1238L6.54955 11.1238L6.54955 4.00049L6.89955 4.00049Z" fill="white"/>
<path d="M10.6989 13.4978L10.4514 13.7453L10.6989 13.9928L10.9464 13.7453L10.6989 13.4978ZM11.0489 6.3745C11.0489 6.1812 10.8922 6.0245 10.6989 6.0245C10.5056 6.0245 10.3489 6.1812 10.3489 6.3745L10.6989 6.3745L11.0489 6.3745ZM8.79932 11.5983L8.55183 11.8457L10.4514 13.7453L10.6989 13.4978L10.9464 13.2503L9.0468 11.3508L8.79932 11.5983ZM10.6989 13.4978L10.9464 13.7453L12.8459 11.8457L12.5984 11.5983L12.3509 11.3508L10.4514 13.2503L10.6989 13.4978ZM10.6989 13.4978L11.0489 13.4978L11.0489 6.3745L10.6989 6.3745L10.3489 6.3745L10.3489 13.4978L10.6989 13.4978Z" fill="white"/>
</svg>
