<svg width="20" height="26" viewBox="0 0 20 26" fill="none" xmlns="http://www.w3.org/2000/svg">
<path d="M5.59925 2L5.06892 1.46967L5.59925 0.93934L6.12958 1.46967L5.59925 2ZM6.34925 18.5001C6.34925 18.9143 6.01346 19.2501 5.59925 19.2501C5.18503 19.2501 4.84925 18.9143 4.84925 18.5001L6.34925 18.5001ZM1.19922 6.40003L0.668889 5.8697L5.06892 1.46967L5.59925 2L6.12958 2.53033L1.72955 6.93036L1.19922 6.40003ZM5.59925 2L6.12958 1.46967L10.5296 5.8697L9.99927 6.40003L9.46894 6.93036L5.06892 2.53033L5.59925 2ZM5.59925 2L6.34925 2L6.34925 18.5001L5.59925 18.5001L4.84925 18.5001L4.84925 2L5.59925 2Z" fill="#3E4666"/>
<path d="M14.4 24L13.8697 24.5303L14.4 25.0607L14.9304 24.5303L14.4 24ZM15.15 7.4999C15.15 7.08569 14.8142 6.7499 14.4 6.7499C13.9858 6.7499 13.65 7.08569 13.65 7.4999L15.15 7.4999ZM10 19.6L9.46967 20.1303L13.8697 24.5303L14.4 24L14.9304 23.4697L10.5303 19.0696L10 19.6ZM14.4 24L14.9304 24.5303L19.3304 20.1303L18.8001 19.6L18.2697 19.0696L13.8697 23.4697L14.4 24ZM14.4 24L15.15 24L15.15 7.4999L14.4 7.4999L13.65 7.4999L13.65 24L14.4 24Z" fill="#3E4666"/>
</svg>
