<svg width="28" height="28" viewBox="0 0 28 28" fill="none" xmlns="http://www.w3.org/2000/svg">
<g clip-path="url(#clip0_3193_1988)">
<path d="M14.0011 27.5301C21.4753 27.5301 27.5345 21.471 27.5345 13.9967C27.5345 6.52246 21.4753 0.463379 14.0011 0.463379C6.52686 0.463379 0.467773 6.52246 0.467773 13.9967C0.467773 21.471 6.52686 27.5301 14.0011 27.5301Z" fill="#FF5252"/>
<path d="M14 28C6.28133 28 0 21.7187 0 14C0 6.28133 6.28133 0 14 0C21.7187 0 28 6.28133 28 14C28 21.7187 21.7187 28 14 28ZM14 0.933333C6.79467 0.933333 0.933333 6.79467 0.933333 14C0.933333 21.2053 6.79467 27.0667 14 27.0667C21.2053 27.0667 27.0667 21.2053 27.0667 14C27.0667 6.79467 21.2053 0.933333 14 0.933333Z" fill="#FF5252"/>
<path d="M14.9359 13.3526C14.7119 13.3526 14.5066 13.1846 14.4786 12.9513C14.4413 12.6993 14.6186 12.4566 14.8706 12.4193L22.8039 11.2433C23.0559 11.2153 23.2986 11.3833 23.3359 11.6353C23.3733 11.8873 23.1959 12.1299 22.9439 12.1673L15.0106 13.3433C14.9826 13.3433 14.9546 13.3526 14.9359 13.3526Z" fill="white"/>
<path d="M14.9332 13.3522C14.8305 13.3522 14.7278 13.3148 14.6345 13.2495L6.70116 6.7815C6.50516 6.62283 6.46783 6.32416 6.63583 6.12816C6.80383 5.93216 7.09316 5.89483 7.28916 6.06283L15.2225 12.5308C15.4185 12.6895 15.4558 12.9882 15.2878 13.1842C15.2038 13.2868 15.0732 13.3522 14.9332 13.3522Z" fill="white"/>
<path d="M13.4696 23.9223C13.4509 23.9223 13.4229 23.9223 13.4042 23.9223C13.1522 23.885 12.9749 23.6516 13.0029 23.3996L14.4682 12.825C14.4869 12.713 14.5429 12.6103 14.6269 12.5356L19.4429 8.30762C19.6389 8.13962 19.9282 8.15829 20.1056 8.35429C20.2736 8.55029 20.2549 8.83962 20.0589 9.01696L15.3736 13.133L13.9269 23.521C13.8989 23.7543 13.6936 23.9223 13.4696 23.9223Z" fill="white"/>
<path d="M13.1577 24.1959C13.1297 24.1959 13.111 24.1959 13.083 24.1866C12.915 24.1586 12.775 24.0466 12.719 23.8879L6.25101 6.85455C6.19501 6.69588 6.22301 6.51855 6.32568 6.38788C6.42835 6.25721 6.60568 6.20121 6.76435 6.22921L19.5137 8.45991C19.607 8.47858 19.691 8.51591 19.7564 8.59058L22.8737 11.6426C23.0417 11.8106 23.0604 12.0812 22.911 12.2679L13.5217 24.0186C13.4284 24.1306 13.2977 24.1959 13.1577 24.1959ZM7.41768 7.28388L13.2977 22.7959L21.9217 12.0066L19.215 9.34658L7.41768 7.28388Z" fill="white"/>
</g>
<defs>
<clipPath id="clip0_3193_1988">
<rect width="28" height="28" fill="white"/>
</clipPath>
</defs>
</svg>
