<svg width="28" height="28" viewBox="0 0 28 28" fill="none" xmlns="http://www.w3.org/2000/svg">
<g clip-path="url(#clip0_3125_1891)">
<mask id="mask0_3125_1891" style="mask-type:luminance" maskUnits="userSpaceOnUse" x="0" y="0" width="28" height="28">
<path d="M28 0H0V28H28V0Z" fill="white"/>
</mask>
<g mask="url(#mask0_3125_1891)">
<path d="M14 0C21.7317 0 28 6.26836 28 14C28 21.7317 21.7313 28 14 28C6.26864 28 0 21.7333 0 14C0 6.26668 6.26752 0 14 0Z" fill="#53AE94"/>
<path d="M15.7294 12.1346V10.0519H20.4919V6.87866H7.52341V10.0519H12.2865V12.1329C8.41547 12.3107 5.50488 13.0773 5.50488 13.9957C5.50488 14.9141 8.41687 15.6808 12.2865 15.8597V22.5307H15.7305V15.8591C19.5945 15.6808 22.4992 14.9147 22.4992 13.9971C22.4992 13.0796 19.5945 12.3135 15.7305 12.1351L15.7294 12.1346ZM15.7305 15.2941V15.2924C15.6333 15.2986 15.1341 15.3285 14.0225 15.3285C13.1338 15.3285 12.5085 15.3033 12.2882 15.2918V15.2946C8.86821 15.1432 6.31548 14.5476 6.31548 13.835C6.31548 13.1224 8.86852 12.5277 12.2882 12.3759V14.7013C12.5122 14.7167 13.1528 14.7545 14.037 14.7545C15.0991 14.7545 15.633 14.7103 15.731 14.7013V12.3759C19.1442 12.528 21.6911 13.1241 21.6911 13.8342C21.6911 14.5442 19.1426 15.1403 15.7305 15.2924" fill="white"/>
</g>
</g>
<defs>
<clipPath id="clip0_3125_1891">
<rect width="28" height="28" fill="white"/>
</clipPath>
</defs>
</svg>
