<svg width="32" height="32" viewBox="0 0 32 32" fill="none" xmlns="http://www.w3.org/2000/svg">
<g clip-path="url(#clip0_3117_2163)">
<mask id="mask0_3117_2163" style="mask-type:luminance" maskUnits="userSpaceOnUse" x="0" y="0" width="32" height="32">
<path d="M32 0H0V32H32V0Z" fill="white"/>
</mask>
<g mask="url(#mask0_3117_2163)">
<path d="M16 0C24.8362 0 32 7.16384 32 16C32 24.8362 24.8358 32 16 32C7.16416 32 0 24.838 0 16C0 7.16192 7.16288 0 16 0Z" fill="#53AE94"/>
<path d="M17.9771 13.8681V11.4879H23.42V7.86133H8.59888V11.4879H14.0424V13.8661C9.61837 14.0693 6.29199 14.9455 6.29199 15.9951C6.29199 17.0447 9.61997 17.9209 14.0424 18.1253V25.7493H17.9784V18.1247C22.3944 17.9209 25.7141 17.0453 25.7141 15.9967C25.7141 14.9481 22.3944 14.0725 17.9784 13.8687L17.9771 13.8681ZM17.9784 17.4789V17.477C17.8674 17.4841 17.2968 17.5183 16.0264 17.5183C15.0107 17.5183 14.2962 17.4895 14.0443 17.4764V17.4796C10.1358 17.3065 7.21839 16.6258 7.21839 15.8114C7.21839 14.997 10.1362 14.3173 14.0443 14.1439V16.8015C14.3003 16.8191 15.0325 16.8623 16.043 16.8623C17.2568 16.8623 17.867 16.8117 17.979 16.8015V14.1439C21.8798 14.3177 24.7906 14.9989 24.7906 15.8105C24.7906 16.622 21.8779 17.3032 17.9784 17.477" fill="white"/>
</g>
</g>
<defs>
<clipPath id="clip0_3117_2163">
<rect width="32" height="32" fill="white"/>
</clipPath>
</defs>
</svg>
