<svg width="26" height="26" viewBox="0 0 26 26" fill="none" xmlns="http://www.w3.org/2000/svg">
<circle cx="13" cy="13" r="13" fill="#FF3366" fill-opacity="0.13"/>
<path d="M10.6317 10.5539C10.127 8.87171 11.3867 7.17871 13.143 7.17871C14.8992 7.17871 16.1589 8.87172 15.6542 10.5539L14.277 15.1444C14.2395 15.2695 14.2208 15.332 14.1973 15.3861C14.0557 15.7128 13.7509 15.9395 13.3973 15.9813C13.3388 15.9882 13.2735 15.9882 13.143 15.9882C13.0124 15.9882 12.9471 15.9882 12.8886 15.9813C12.535 15.9395 12.2302 15.7128 12.0886 15.3861C12.0651 15.332 12.0464 15.2695 12.0089 15.1444L10.6317 10.5539Z" fill="#FF3366" fill-opacity="0.2" stroke="#FF3366" stroke-width="0.5"/>
<circle cx="13.1428" cy="20.3928" r="1.7619" fill="#FF3366" fill-opacity="0.2" stroke="#FF3366" stroke-width="0.5"/>
</svg>
