<svg width="184" height="50" viewBox="0 0 184 50" fill="none" xmlns="http://www.w3.org/2000/svg">
<path fill-rule="evenodd" clip-rule="evenodd" d="M6.85918 29.3776L18.372 35.7295V21.6362L49.377 2.61249C49.5369 3.04475 49.6242 3.51218 49.6242 4V45.6242C49.6242 47.8334 47.8334 49.6242 45.6242 49.6242H29.8848V28.3851L18.372 35.928V49.6242H4C1.79086 49.6242 0 47.8334 0 45.6242V4C0 1.79086 1.79086 0 4 0H31.7094L6.85918 15.2843V29.3776ZM47.0012 0.243298C47.8682 0.561172 48.5945 1.17063 49.0614 1.95288L47.0012 0.243298Z" fill="#8003A9"/>
<path d="M110.128 6.80009H100.334L103.078 15.0314C103.267 15.5991 103.799 15.9821 104.397 15.9821C104.911 15.9821 105.382 15.6991 105.624 15.246L110.128 6.80009Z" fill="#8003A9"/>
<path d="M96.6614 6.79996H85.643L95.9239 39.2661C96.7275 41.8036 99.0824 43.528 101.744 43.528C103.905 43.528 105.905 42.3856 107.003 40.5243L119.31 19.6548L125.432 30.0611H145.632L151.754 6.79996H141.959L135.226 28.8368L123.998 8.519C122.994 6.70301 121.083 5.57569 119.008 5.57569C116.929 5.57569 115.015 6.70745 114.013 8.52908L102.171 30.0611L96.6614 6.79996Z" fill="#8003A9"/>
<path d="M63.6062 6.80009L56.8727 15.9821H73.4004L81.9702 42.916H92.3765L81.9702 6.80009H63.6062Z" fill="#8003A9"/>
<path d="M167.057 6.18789H156.038V28.7339C156.038 31.4954 153.8 33.7339 151.038 33.7339H115.638L110.128 42.9159H158.057C163.027 42.9159 167.057 38.8865 167.057 33.9159V6.18789Z" fill="#8003A9"/>
<path d="M170.235 6.13339L184 6.13339V9.4453H178.475V14.8447H184V18.1499H170.235V14.8447H175.767V9.4453H170.235V6.13339Z" fill="#8003A9"/>
<path d="M184 27.5752V30.8804H175.122C174.095 30.8804 173.202 30.6373 172.44 30.1511C171.683 29.6649 171.096 28.9869 170.679 28.1171C170.267 27.2473 170.061 26.237 170.061 25.0862C170.061 23.922 170.267 22.905 170.679 22.0352C171.096 21.1654 171.683 20.4897 172.44 20.008C173.202 19.5262 174.095 19.2854 175.122 19.2854H184V22.5973H175.411C174.936 22.5973 174.512 22.6999 174.14 22.905C173.768 23.1147 173.477 23.4068 173.267 23.7815C173.056 24.1562 172.951 24.5911 172.951 25.0862C172.951 25.5813 173.056 26.014 173.267 26.3842C173.477 26.7589 173.768 27.0511 174.14 27.2607C174.512 27.4703 174.936 27.5752 175.411 27.5752H184Z" fill="#8003A9"/>
<path d="M170.235 32.0141H184V37.728C184 38.7539 183.854 39.6126 183.563 40.3039C183.272 40.9998 182.864 41.5216 182.34 41.8696C181.816 42.2219 181.209 42.3981 180.519 42.3981C179.994 42.3981 179.526 42.2888 179.114 42.0703C178.706 41.8517 178.368 41.5506 178.099 41.167C177.83 40.7834 177.642 40.3396 177.534 39.8356H177.4C177.373 40.3887 177.223 40.8994 176.95 41.3678C176.676 41.8406 176.295 42.2197 175.807 42.5052C175.323 42.7907 174.75 42.9334 174.086 42.9334C173.347 42.9334 172.686 42.7461 172.104 42.3714C171.526 41.9967 171.069 41.4547 170.733 40.7455C170.401 40.0363 170.235 39.1754 170.235 38.1629V32.0141ZM172.917 35.326V37.3734C172.917 38.0915 173.054 38.6201 173.327 38.9591C173.6 39.3026 173.981 39.4743 174.47 39.4743C174.824 39.4743 175.128 39.3918 175.384 39.2267C175.644 39.0617 175.843 38.8275 175.982 38.5242C176.125 38.2209 176.197 37.8574 176.197 37.4336V35.326H172.917ZM178.341 35.326V37.1593C178.341 37.5206 178.401 37.8417 178.522 38.1228C178.643 38.4038 178.818 38.6223 179.047 38.7785C179.275 38.939 179.551 39.0193 179.873 39.0193C180.335 39.0193 180.698 38.8565 180.962 38.5309C181.226 38.2053 181.359 37.7659 181.359 37.2128V35.326H178.341Z" fill="#8003A9"/>
</svg>
