<svg width="38" height="38" viewBox="0 0 38 38" fill="none" xmlns="http://www.w3.org/2000/svg">
<circle cx="19" cy="19" r="19" fill="#EA07CF" fill-opacity="0.2"/>
<path d="M22.271 9.7915H15.9377C15.4128 9.7915 14.9093 10 14.5382 10.3712C14.167 10.7424 13.9585 11.2458 13.9585 11.7707V25.229C13.9585 25.7539 14.167 26.2573 14.5382 26.6285C14.9093 26.9997 15.4128 27.2082 15.9377 27.2082H22.271C22.7959 27.2082 23.2993 26.9997 23.6705 26.6285C24.0416 26.2573 24.2502 25.7539 24.2502 25.229V11.7707C24.2502 11.2458 24.0416 10.7424 23.6705 10.3712C23.2993 10 22.7959 9.7915 22.271 9.7915ZM19.1043 26.4165C18.4472 26.4165 17.9168 25.8861 17.9168 25.229C17.9168 24.5719 18.4472 24.0415 19.1043 24.0415C19.7614 24.0415 20.2918 24.5719 20.2918 25.229C20.2918 25.8861 19.7614 26.4165 19.1043 26.4165ZM22.6668 23.2498H15.5418V12.1665H22.6668V23.2498Z" fill="#EA07CF"/>
</svg>
