<svg width="38" height="38" viewBox="0 0 38 38" fill="none" xmlns="http://www.w3.org/2000/svg">
<mask id="mask0_628_777" style="mask-type:luminance" maskUnits="userSpaceOnUse" x="0" y="0" width="38" height="38">
<path d="M0 0H38V38H0V0Z" fill="white"/>
</mask>
<g mask="url(#mask0_628_777)">
<path d="M18.0269 24.1855C19.786 24.1791 23.6319 24.1649 23.5876 21.7186C23.5448 19.217 19.8509 19.3674 18.0507 19.4418C17.848 19.4513 17.6728 19.4571 17.525 19.4592L17.6073 24.1886C17.7277 24.1855 17.8675 24.1844 18.0269 24.1855ZM17.8401 17.2932C19.3078 17.2916 22.5109 17.2885 22.4729 15.0639C22.4318 12.7886 19.3553 12.9232 17.8528 12.9897C17.6839 12.9982 17.5372 13.0034 17.4126 13.0056L17.487 17.2948L17.8401 17.2932Z" fill="#27014F"/>
<path fill-rule="evenodd" clip-rule="evenodd" d="M14.4027 37.4318C24.5835 39.9699 34.8942 33.7743 37.4323 23.5966C39.9703 13.4174 33.7732 3.10669 23.5923 0.570193C13.4178 -1.96947 3.10717 4.22769 0.570668 14.4085C-1.96742 24.5862 4.22817 34.8969 14.4043 37.4334M21.1841 10.485C23.9613 10.6814 26.1716 11.4952 26.4613 14.0349C26.6767 15.8937 25.9167 17.0258 24.6833 17.6813C26.7416 18.1373 28.0478 19.3327 27.842 22.0687C27.5871 25.4649 25.0743 26.4197 21.4675 26.6904L21.5277 30.2529L19.3807 30.2909L19.3189 26.7759C18.7637 26.7865 18.1916 26.7907 17.6026 26.7886L17.6659 30.3194L15.5189 30.3574L15.4556 26.7886L14.8492 26.7934C14.5409 26.7934 14.2317 26.7965 13.9213 26.8029L11.1252 26.8504L11.5068 24.279C11.5068 24.279 13.0964 24.2759 13.0679 24.2521C13.6759 24.2394 13.8295 23.8009 13.8628 23.5254L13.7646 17.8919L13.9182 17.8887H13.991C13.9154 17.8795 13.8392 17.8758 13.763 17.8776L13.6933 13.8559C13.6031 13.4221 13.3118 12.9218 12.4425 12.9376C12.4663 12.9059 10.8813 12.9645 10.8813 12.9645L10.8402 10.6719L13.8042 10.6212V10.6323C14.2507 10.6238 14.7061 10.6101 15.1706 10.5911L15.1104 7.06186L17.2574 7.02544L17.3176 10.4834C17.8908 10.4629 18.4671 10.4407 19.0323 10.4312L18.9722 6.99536L21.1208 6.95736L21.1841 10.485Z" fill="#27014F"/>
</g>
</svg>
