<svg width="38" height="38" viewBox="0 0 38 38" fill="none" xmlns="http://www.w3.org/2000/svg">
<circle cx="19" cy="19" r="19" fill="#32A071" fill-opacity="0.25"/>
<path d="M18.5001 26.1501C19.5494 26.1501 20.4001 25.2994 20.4001 24.2501C20.4001 23.2008 19.5494 22.3501 18.5001 22.3501C17.4508 22.3501 16.6001 23.2008 16.6001 24.2501C16.6001 25.2994 17.4508 26.1501 18.5001 26.1501Z" fill="#32A071"/>
<path d="M9.9502 17.0299C11.02 15.7158 12.3357 14.6633 13.8098 13.9424C15.2839 13.2215 16.8828 12.8486 18.5002 12.8486C20.1176 12.8486 21.7164 13.2215 23.1906 13.9424C24.6647 14.6633 25.9804 15.7158 27.0502 17.0299L25.6252 18.3599C24.7337 17.2378 23.6373 16.3392 22.4089 15.7236C21.1804 15.1081 19.848 14.7897 18.5002 14.7897C17.1524 14.7897 15.82 15.1081 14.5915 15.7236C13.3631 16.3392 12.2667 17.2378 11.3752 18.3599L9.9502 17.0299ZM13.4652 20.0699C14.0894 19.2983 14.8677 18.6782 15.7455 18.2529C16.6234 17.8275 17.5797 17.6071 18.5477 17.6071C19.5157 17.6071 20.472 17.8275 21.3499 18.2529C22.2277 18.6782 23.006 19.2983 23.6302 20.0699L22.3002 21.3999C21.8551 20.8118 21.2911 20.3372 20.6499 20.0111C20.0086 19.685 19.3064 19.5157 18.5952 19.5157C17.884 19.5157 17.1818 19.685 16.5405 20.0111C15.8993 20.3372 15.3353 20.8118 14.8902 21.3999L13.4652 20.0699Z" fill="#32A071"/>
</svg>
