<svg width="38" height="38" viewBox="0 0 38 38" fill="none" xmlns="http://www.w3.org/2000/svg">
<circle cx="19" cy="19" r="19" fill="#FF3366" fill-opacity="0.2"/>
<path d="M17.7188 28.2188H21.2813V29.4063H17.7188V28.2188ZM17.125 26.4375H21.875V27.625H17.125V26.4375ZM23.709 13.3264C22.5931 12.209 21.0983 11.5938 19.5 11.5938C18.7198 11.5919 17.9468 11.7442 17.2256 12.0419C16.5044 12.3397 15.8491 12.777 15.2974 13.3287C14.7457 13.8804 14.3084 14.5357 14.0107 15.2569C13.713 15.9781 13.5607 16.751 13.5625 17.5313C13.5625 19.2613 14.2257 20.8796 15.3809 21.971L15.5427 22.1228C16.211 22.7477 17.125 23.6038 17.125 24.3594V25.8438H18.9063V20.9865L17.2631 20.0547L17.9414 19.0795L19.5 19.9063L21.0323 19.0754L21.7411 20.0284L20.0938 20.9932V25.8438H21.875V24.3594C21.875 23.6217 22.779 22.7663 23.4392 22.1414L23.6214 21.9684C24.8096 20.834 25.4375 19.298 25.4375 17.5313C25.4414 16.7509 25.2907 15.9776 24.994 15.2559C24.6973 14.5341 24.2606 13.8784 23.709 13.3264Z" fill="#FF3366"/>
</svg>
