<svg width="38" height="38" viewBox="0 0 38 38" fill="none" xmlns="http://www.w3.org/2000/svg">
<circle cx="19" cy="19" r="19" fill="#27014F"/>
<path d="M15.625 12.1602H13.0938C12.2732 12.1602 11.4863 12.4904 10.9061 13.0784C10.3259 13.6663 10 14.4637 10 15.2952V17.8602H12.5515C12.3039 17.4255 12.2047 16.9202 12.2694 16.4226C12.3341 15.925 12.5589 15.463 12.9091 15.1081C13.2594 14.7532 13.7153 14.5253 14.2064 14.4598C14.6974 14.3943 15.1961 14.4948 15.625 14.7457V12.1602ZM16.75 16.7202V17.8602H17.875C18.0975 17.8602 18.315 17.7933 18.5 17.668C18.685 17.5428 18.8292 17.3647 18.9144 17.1564C18.9995 16.9481 19.0218 16.7189 18.9784 16.4978C18.935 16.2766 18.8278 16.0735 18.6705 15.9141C18.5132 15.7546 18.3127 15.646 18.0945 15.6021C17.8762 15.5581 17.65 15.5806 17.4445 15.6669C17.2389 15.7532 17.0632 15.8993 16.9396 16.0868C16.816 16.2743 16.75 16.4947 16.75 16.7202ZM19.8235 17.8602C20.0711 17.4255 20.1703 16.9202 20.1056 16.4226C20.0409 15.925 19.8161 15.463 19.4659 15.1081C19.1156 14.7532 18.6597 14.5253 18.1686 14.4598C17.6776 14.3943 17.1789 14.4948 16.75 14.7457V12.1602H24.9063C25.7268 12.1602 26.5137 12.4904 27.0939 13.0784C27.6741 13.6663 28 14.4637 28 15.2952V17.8602H19.8235ZM17.5454 19.0002L19.3983 20.8766C19.5039 20.9836 19.5632 21.1288 19.5632 21.2802C19.5632 21.4315 19.5039 21.5767 19.3983 21.6837C19.2926 21.7907 19.1494 21.8509 19 21.8509C18.8506 21.8509 18.7074 21.7907 18.6018 21.6837L16.75 19.8061V25.8402H24.9063C25.7268 25.8402 26.5137 25.5099 27.0939 24.9219C27.6741 24.334 28 23.5366 28 22.7052V19.0002H17.5454ZM15.625 25.8402V19.8061L13.7733 21.6837C13.6676 21.7907 13.5244 21.8509 13.375 21.8509C13.2256 21.8509 13.0824 21.7907 12.9767 21.6837C12.8711 21.5767 12.8118 21.4315 12.8118 21.2802C12.8118 21.1288 12.8711 20.9836 12.9767 20.8766L14.8296 19.0002H10V22.7052C10 23.5366 10.3259 24.334 10.9061 24.9219C11.4863 25.5099 12.2732 25.8402 13.0938 25.8402H15.625ZM15.625 16.7202C15.625 16.4947 15.559 16.2743 15.4354 16.0868C15.3118 15.8993 15.1361 15.7532 14.9305 15.6669C14.725 15.5806 14.4988 15.5581 14.2805 15.6021C14.0623 15.646 13.8618 15.7546 13.7045 15.9141C13.5472 16.0735 13.44 16.2766 13.3966 16.4978C13.3532 16.7189 13.3755 16.9481 13.4606 17.1564C13.5458 17.3647 13.69 17.5428 13.875 17.668C14.06 17.7933 14.2775 17.8602 14.5 17.8602H15.625V16.7202Z" fill="white"/>
</svg>
