<svg width="38" height="38" viewBox="0 0 38 38" fill="none" xmlns="http://www.w3.org/2000/svg">
<circle cx="19" cy="19" r="19" fill="#FFB700" fill-opacity="0.2"/>
<path d="M19.7665 21.6666C20.1653 22.1983 20.7213 22.5911 21.3557 22.7892C21.9901 22.9874 22.6707 22.9809 23.3013 22.7708C23.9318 22.5606 24.4802 22.1574 24.8688 21.6182C25.2574 21.079 25.4665 20.4312 25.4665 19.7666C25.4665 19.0522 25.2208 18.3999 24.8218 17.8704L24.8332 17.8666L18.4999 10.2666L12.1665 17.8666L12.1779 17.8704C11.7619 18.4152 11.5355 19.0811 11.5332 19.7666C11.5332 20.4312 11.7423 21.079 12.1309 21.6182C12.5196 22.1574 13.068 22.5606 13.6985 22.7708C14.329 22.9809 15.0097 22.9874 15.6441 22.7892C16.2785 22.5911 16.8344 22.1983 17.2332 21.6666L17.8665 20.823V23.5666C17.8665 25.4666 14.6999 25.4666 14.6999 25.4666C14.5319 25.4666 14.3708 25.5333 14.252 25.6521C14.1333 25.7709 14.0665 25.932 14.0665 26.0999C14.0665 26.2679 14.1333 26.429 14.252 26.5478C14.3708 26.6665 14.5319 26.7333 14.6999 26.7333H22.2999C22.4678 26.7333 22.6289 26.6665 22.7477 26.5478C22.8665 26.429 22.9332 26.2679 22.9332 26.0999C22.9332 25.932 22.8665 25.7709 22.7477 25.6521C22.6289 25.5333 22.4678 25.4666 22.2999 25.4666C22.2999 25.4666 19.1332 25.4666 19.1332 23.5666V20.823L19.7665 21.6666Z" fill="#FFB700"/>
</svg>
