<svg width="91" height="91" viewBox="0 0 91 91" fill="none" xmlns="http://www.w3.org/2000/svg">
<circle cx="45.5" cy="45.5" r="45.5" fill="#FFEEF2"/>
<path fill-rule="evenodd" clip-rule="evenodd" d="M43.2063 35.8064L39.5832 41.4999L46.9165 47.9165L45.0832 52.4999L51.4998 46.9999L45.9998 40.5832L49.6665 35.9999L48.4538 34.484C51.229 32.1025 55.332 31.8871 58.3614 34.0886C58.703 34.3368 59.0845 34.6809 59.8474 35.369L59.8475 35.3691C60.6868 36.1261 61.1065 36.5047 61.4196 36.8525C64.4488 40.217 64.5072 45.3081 61.556 48.7412C61.2509 49.0961 60.84 49.4842 60.0182 50.2603L46.6864 62.8514C46.3612 63.1585 46.1986 63.3121 45.9998 63.3121C45.801 63.3121 45.6384 63.1585 45.3132 62.8514L31.4803 49.7871L31.4801 49.7869C31.1199 49.4467 30.9398 49.2766 30.7973 49.1292C27.3699 45.5832 27.4346 39.9392 30.9425 36.4727C31.0883 36.3286 31.2723 36.1626 31.6402 35.8308L31.6403 35.8307L31.6403 35.8307L32.2047 35.3216C35.4701 32.3764 40.3791 32.7496 43.2063 35.8064Z" fill="#FF3366" fill-opacity="0.2"/>
<path fill-rule="evenodd" clip-rule="evenodd" d="M41.5802 36.0309C38.7694 34.2856 34.8481 34.7309 32.5902 37.6411L32.023 38.3721C29.3545 41.8115 29.7398 46.7162 32.9126 49.6967L45.6591 61.6706C45.771 61.7758 45.8589 61.8583 45.9361 61.9281C45.9595 61.9493 45.9807 61.9682 45.9999 61.985C46.0191 61.9682 46.0403 61.9493 46.0638 61.9281C46.1409 61.8583 46.2288 61.7758 46.3407 61.6706L59.0872 49.6967C62.26 46.7162 62.6453 41.8115 59.9768 38.3721L59.4096 37.6411C56.9834 34.5139 52.6367 34.232 49.8088 36.4592L48.4476 34.7308C52.1747 31.7954 57.9268 32.141 61.1478 36.2925L61.715 37.0235C65.0791 41.3595 64.5933 47.5427 60.5935 51.3002L47.847 63.2741L47.8185 63.3009C47.6239 63.4837 47.4245 63.6712 47.2388 63.8142C47.0292 63.9756 46.7521 64.1499 46.3883 64.2213C46.1318 64.2716 45.868 64.2716 45.6115 64.2213C45.2477 64.1499 44.9706 63.9756 44.761 63.8142C44.5753 63.6712 44.3759 63.4837 44.1813 63.3009L44.1528 63.2741L31.4063 51.3002C27.4065 47.5427 26.9207 41.3595 30.2848 37.0235L30.852 36.2926C34.1642 32.0234 40.1528 31.7779 43.866 34.9899L44.6611 35.6777L44.0099 36.5031L40.938 40.3969C40.6309 40.7861 40.4491 41.0197 40.3379 41.1937C40.5036 41.3169 40.7564 41.471 41.1815 41.726L46.6006 44.9775C46.6177 44.9878 46.6348 44.998 46.6518 45.0082C47.0294 45.2346 47.4025 45.4584 47.6849 45.6851C48.005 45.942 48.3445 46.3065 48.4683 46.8571C48.5922 47.4077 48.4413 47.8825 48.2621 48.2517C48.1039 48.5775 47.8624 48.9394 47.6182 49.3057C47.6071 49.3222 47.5961 49.3388 47.5851 49.3553L45.0819 53.1101L43.2514 51.8897L45.7546 48.135C46.0105 47.7511 46.16 47.5234 46.2496 47.356C46.097 47.2431 45.8644 47.1014 45.4688 46.864L40.0496 43.6125C40.0317 43.6018 40.0137 43.591 39.9958 43.5802C39.5887 43.3361 39.1904 43.0972 38.8922 42.8561C38.5565 42.5847 38.198 42.1949 38.09 41.6056C37.982 41.0163 38.1791 40.5246 38.3967 40.1519C38.59 39.8207 38.8778 39.4561 39.1719 39.0835C39.1849 39.0671 39.1978 39.0507 39.2108 39.0342L41.5802 36.0309Z" fill="#FF3366"/>
</svg>
