<svg width="38" height="38" viewBox="0 0 38 38" fill="none" xmlns="http://www.w3.org/2000/svg">
<circle cx="19" cy="19" r="19" fill="#0067F8" fill-opacity="0.2"/>
<g clip-path="url(#clip0_557_1301)">
<path d="M23.2308 10.9999C23.0929 11.0148 22.9641 11.0757 22.8652 11.1729L19 15.0387L16.9809 13.0184C16.9227 12.9603 16.8537 12.9141 16.7777 12.8827C16.7017 12.8512 16.6202 12.8351 16.5379 12.8351C16.4557 12.8351 16.3742 12.8514 16.2982 12.8829C16.2223 12.9144 16.1532 12.9605 16.0951 13.0187C15.9776 13.1362 15.9117 13.2956 15.9118 13.4617C15.9118 13.544 15.928 13.6254 15.9595 13.7014C15.991 13.7774 16.0372 13.8464 16.0954 13.9046L18.1151 15.923H12.8462C12.3565 15.923 11.8869 16.1175 11.5407 16.4637C11.1945 16.81 11 17.2795 11 17.7692V25.1538C11 25.6434 11.1945 26.113 11.5407 26.4592C11.8869 26.8054 12.3565 26.9999 12.8462 26.9999H25.1538C25.6435 26.9999 26.1131 26.8054 26.4593 26.4592C26.8055 26.113 27 25.6434 27 25.1538V17.7692C27 17.2795 26.8055 16.81 26.4593 16.4637C26.1131 16.1175 25.6435 15.923 25.1538 15.923H19.8843L23.7502 12.0578C23.847 11.9678 23.9123 11.8489 23.9363 11.7189C23.9603 11.5889 23.9418 11.4546 23.8835 11.3359C23.8253 11.2172 23.7303 11.1204 23.6127 11.0599C23.4952 10.9994 23.3612 10.9784 23.2308 10.9999ZM17.4615 17.1538C22.0431 17.1538 22.6923 17.1667 22.6923 21.4615C22.6923 25.7569 21.9982 25.7692 17.4615 25.7692C12.904 25.7692 12.2308 25.7236 12.2308 21.4615C12.2308 17.2006 12.904 17.1538 17.4615 17.1538ZM24.8462 18.9618C25.3791 18.9618 25.808 19.3901 25.808 19.923C25.8082 20.0494 25.7835 20.1746 25.7353 20.2914C25.687 20.4082 25.6162 20.5143 25.5268 20.6037C25.4375 20.6931 25.3313 20.7639 25.2145 20.8121C25.0977 20.8604 24.9725 20.8851 24.8462 20.8849C24.7198 20.8851 24.5946 20.8604 24.4778 20.8121C24.361 20.7639 24.2548 20.6931 24.1655 20.6037C24.0761 20.5143 24.0053 20.4082 23.957 20.2914C23.9088 20.1746 23.8841 20.0494 23.8843 19.923C23.8841 19.7966 23.9088 19.6715 23.957 19.5546C24.0053 19.4378 24.0761 19.3317 24.1655 19.2423C24.2548 19.153 24.361 19.0821 24.4778 19.0339C24.5946 18.9856 24.7198 18.9615 24.8462 18.9618ZM24.8462 21.4233C25.3791 21.4233 25.808 21.8516 25.808 22.3846C25.8082 22.5109 25.7835 22.6361 25.7353 22.7529C25.687 22.8697 25.6162 22.9759 25.5268 23.0652C25.4375 23.1546 25.3313 23.2254 25.2145 23.2737C25.0977 23.3219 24.9725 23.3466 24.8462 23.3464C24.7198 23.3466 24.5946 23.3219 24.4778 23.2737C24.361 23.2254 24.2548 23.1546 24.1655 23.0652C24.0761 22.9759 24.0053 22.8697 23.957 22.7529C23.9088 22.6361 23.8841 22.5109 23.8843 22.3846C23.8841 22.2582 23.9088 22.133 23.957 22.0162C24.0053 21.8994 24.0761 21.7933 24.1655 21.7039C24.2548 21.6145 24.361 21.5437 24.4778 21.4954C24.5946 21.4472 24.7198 21.4231 24.8462 21.4233Z" fill="#0067F8"/>
</g>
<defs>
<clipPath id="clip0_557_1301">
<rect width="16" height="16" fill="white" transform="translate(11 11)"/>
</clipPath>
</defs>
</svg>
