<svg width="583" height="583" viewBox="0 0 583 583" fill="none" xmlns="http://www.w3.org/2000/svg">
<mask id="mask0_3546_2326" style="mask-type:alpha" maskUnits="userSpaceOnUse" x="0" y="0" width="583" height="583">
<circle cx="291.5" cy="291.5" r="291.5" fill="#D9D9D9"/>
</mask>
<g mask="url(#mask0_3546_2326)">
<path d="M583 -1H-3V585H583V-1Z" fill="#F3BA2F"/>
<path d="M220.448 263.079L289.414 194.112L358.413 263.108L398.541 222.98L289.414 113.856L180.322 222.948L220.449 263.076L220.448 263.079ZM111.856 291.414L151.985 251.279L192.112 291.406L151.983 331.535L111.856 291.414ZM220.448 319.754L289.414 388.716L358.412 319.721L398.561 359.828L398.541 359.849L289.414 468.972L180.266 359.824L220.452 319.749L220.448 319.754ZM386.716 291.432L426.845 251.301L466.972 291.428L426.844 331.557L386.716 291.432Z" fill="white"/>
<path d="M330.113 291.393H330.13L289.414 250.674L248.73 291.352L248.673 291.407L248.73 291.466L289.414 332.154L330.133 291.435L330.153 291.413L330.115 291.393" fill="white"/>
</g>
</svg>
