<svg width="583" height="583" viewBox="0 0 583 583" fill="none" xmlns="http://www.w3.org/2000/svg">
<mask id="mask0_3546_2334" style="mask-type:alpha" maskUnits="userSpaceOnUse" x="0" y="0" width="583" height="583">
<circle cx="291.5" cy="291.5" r="291.5" fill="#D9D9D9"/>
</mask>
<g mask="url(#mask0_3546_2334)">
<path d="M583 1H1V583H583V1Z" fill="#F7931A"/>
<path d="M429.998 256.234C435.781 217.513 406.299 196.698 365.986 182.811L379.064 130.359L347.126 122.402L334.395 173.472C326.011 171.381 317.389 169.408 308.823 167.452L321.646 116.045L289.736 108.088L276.649 160.523C269.702 158.941 262.881 157.376 256.262 155.731L256.298 155.566L212.266 144.572L203.772 178.674C203.772 178.674 227.462 184.103 226.962 184.439C239.892 187.667 242.239 196.225 241.839 203.009L226.943 262.764C227.835 262.991 228.989 263.318 230.263 263.828L226.897 262.991L206.01 346.699C204.428 350.627 200.416 356.521 191.378 354.283C191.696 354.747 168.17 348.49 168.17 348.49L152.32 385.047L193.878 395.405C201.608 397.342 209.184 399.37 216.631 401.28L203.417 454.342L235.31 462.299L248.405 409.81C257.107 412.174 265.564 414.356 273.839 416.412L260.799 468.656L292.728 476.613L305.941 423.659C360.385 433.963 401.335 429.807 418.549 380.573C432.434 340.924 417.867 318.054 389.221 303.13C410.082 298.302 425.796 284.579 429.989 256.234H429.998ZM357.039 358.53C347.163 398.179 280.415 376.753 258.762 371.371L276.295 301.085C297.939 306.486 367.333 317.181 357.048 358.53H357.039ZM366.906 255.661C357.902 291.728 302.34 273.403 284.307 268.911L300.203 205.163C318.235 209.656 376.29 218.041 366.906 255.661Z" fill="white"/>
</g>
</svg>
