<svg width="583" height="583" viewBox="0 0 583 583" fill="none" xmlns="http://www.w3.org/2000/svg">
<mask id="mask0_3546_2345" style="mask-type:alpha" maskUnits="userSpaceOnUse" x="0" y="0" width="583" height="583">
<circle cx="291.5" cy="291.5" r="291.5" fill="#D9D9D9"/>
</mask>
<g mask="url(#mask0_3546_2345)">
<path d="M583 0H-1V584H583V0Z" fill="#3EC1BD"/>
<path d="M159.911 371.048C162.243 368.718 165.452 367.359 168.854 367.359H477.401C483.04 367.359 485.859 374.154 481.873 378.132L420.922 438.983C418.589 441.314 415.382 442.672 411.978 442.672H103.431C97.7927 442.672 94.9735 435.878 98.9592 431.9L159.911 371.048Z" fill="white"/>
<path d="M159.911 143.849C162.341 141.518 165.549 140.16 168.854 140.16H477.401C483.04 140.16 485.859 146.953 481.873 150.932L420.922 211.784C418.589 214.114 415.38 215.473 411.978 215.473H103.431C97.7927 215.473 94.9735 208.678 98.9592 204.7L159.911 143.849Z" fill="white"/>
<path d="M420.922 256.719C418.589 254.39 415.38 253.032 411.978 253.032H103.431C97.7927 253.032 94.9735 259.825 98.9592 263.804L159.911 324.656C162.243 326.985 165.452 328.345 168.854 328.345H477.401C483.04 328.345 485.859 321.55 481.873 317.571L420.922 256.719Z" fill="white"/>
</g>
</svg>
