<svg width="583" height="583" viewBox="0 0 583 583" fill="none" xmlns="http://www.w3.org/2000/svg">
<mask id="mask0_3546_2330" style="mask-type:alpha" maskUnits="userSpaceOnUse" x="0" y="0" width="583" height="583">
<circle cx="291.5" cy="291.5" r="291.5" fill="#D9D9D9"/>
</mask>
<g mask="url(#mask0_3546_2330)">
<path d="M583 1H1V583H583V1Z" fill="#0088CC"/>
<path fill-rule="evenodd" clip-rule="evenodd" d="M201.464 159.304H384.003C390.98 159.304 396.794 160.468 403.768 163.96C411.907 167.452 416.557 173.272 418.884 177.927C418.884 177.927 418.884 179.092 420.046 179.092C423.534 184.912 425.86 191.896 425.86 200.044C425.86 207.028 424.696 214.012 420.046 220.996L304.941 418.877C302.616 423.533 297.964 425.86 292.152 425.86C287.501 425.86 282.851 423.533 279.362 418.877L166.583 220.996C164.257 216.34 159.607 210.519 159.607 201.208C158.444 193.06 160.769 186.075 164.257 179.092C167.745 172.108 173.56 166.288 181.698 163.96C188.673 159.304 196.812 159.304 201.464 159.304ZM278.2 187.24H201.464C196.812 187.24 194.487 187.24 193.324 188.404C190.999 189.568 189.837 190.732 188.673 193.06C187.511 194.223 187.511 196.552 187.511 198.88C187.511 200.044 188.673 201.208 190.999 205.864L278.2 357.184V187.24ZM306.103 187.24V358.349L394.467 205.864C395.63 203.536 395.63 201.208 395.63 198.88C395.63 196.552 395.63 194.223 394.467 193.06C393.305 191.896 393.305 190.732 392.141 190.732L390.98 189.568C388.655 188.404 386.328 188.404 382.841 188.404H306.103V187.24Z" fill="white"/>
</g>
</svg>
