<svg width="583" height="583" viewBox="0 0 583 583" fill="none" xmlns="http://www.w3.org/2000/svg">
<mask id="mask0_3546_2323" style="mask-type:alpha" maskUnits="userSpaceOnUse" x="0" y="0" width="583" height="583">
<circle cx="291.5" cy="291.5" r="291.5" fill="#D9D9D9"/>
</mask>
<g mask="url(#mask0_3546_2323)">
<path d="M594 -6H-10V598H594V-6Z" fill="#FF060A"/>
<path d="M456.52 224.572C439.837 209.15 416.761 185.596 397.966 168.892L396.853 168.113C395.004 166.624 392.916 165.457 390.682 164.66C345.362 156.197 134.447 116.72 130.331 117.221C129.178 117.383 128.076 117.801 127.106 118.446L126.05 119.28C124.749 120.604 123.761 122.203 123.158 123.958L122.88 124.681V129.248C146.624 195.452 240.376 412.328 258.838 463.22C259.951 466.671 262.063 473.241 266.011 473.576H266.901C269.014 473.576 278.022 461.66 278.022 461.66C278.022 461.66 439.059 266.11 455.352 245.286C457.461 242.721 459.322 239.962 460.912 237.045C461.318 234.763 461.127 232.416 460.357 230.229C459.587 228.044 458.265 226.094 456.52 224.572ZM319.338 247.347L388.067 190.273L428.383 227.468L319.338 247.347ZM292.647 243.615L174.317 146.509L365.77 181.866L292.647 243.615ZM303.324 269.062L424.434 249.517L285.974 416.56L303.324 269.062ZM158.245 156.197L282.749 261.99L264.732 416.671L158.245 156.197Z" fill="white"/>
</g>
</svg>
