<svg width="583" height="583" viewBox="0 0 583 583" fill="none" xmlns="http://www.w3.org/2000/svg">
<mask id="mask0_3546_2336" style="mask-type:alpha" maskUnits="userSpaceOnUse" x="0" y="0" width="583" height="583">
<circle cx="291.5" cy="291.5" r="291.5" fill="#D9D9D9"/>
</mask>
<g mask="url(#mask0_3546_2336)">
<path d="M583 0H-1V584H583V0Z" fill="#2775CA"/>
<path d="M362.211 329.807C362.211 292 339.526 279.036 294.155 273.637C261.749 269.315 255.266 260.673 255.266 245.549C255.266 230.423 266.07 220.704 287.674 220.704C307.118 220.704 317.921 227.185 323.322 243.389C324.402 246.629 327.644 248.789 330.884 248.789H348.167C352.488 248.789 355.728 245.549 355.728 241.229V240.148C351.407 216.383 331.963 198.019 307.118 195.86V169.933C307.118 165.612 303.877 162.371 298.478 161.29H282.274C277.952 161.29 274.711 164.53 273.63 169.933V194.778C241.223 199.1 220.7 220.704 220.7 247.711C220.7 283.358 242.304 297.4 287.674 302.803C317.921 308.204 327.644 314.685 327.644 331.969C327.644 349.254 312.518 361.135 291.995 361.135C263.908 361.135 254.186 349.251 250.945 333.048C249.867 328.729 246.625 326.566 243.385 326.566H225.02C220.7 326.566 217.459 329.807 217.459 334.129V335.21C221.778 362.214 239.064 381.658 274.711 387.061V412.987C274.711 417.307 277.952 420.547 283.352 421.628H299.556C303.877 421.628 307.118 418.387 308.199 412.987V387.061C340.606 381.658 362.211 358.973 362.211 329.807Z" fill="white"/>
<path d="M235.821 443.233C151.563 412.987 108.353 319.006 139.682 235.827C155.886 190.456 191.533 155.891 235.821 139.687C240.144 137.527 242.304 134.286 242.304 128.883V113.761C242.304 109.439 240.144 106.199 235.821 105.12C234.741 105.12 232.581 105.12 231.5 106.199C128.878 138.605 72.7054 247.711 105.112 350.332C124.556 410.825 171.008 457.277 231.5 476.72C235.821 478.88 240.144 476.72 241.222 472.399C242.304 471.32 242.304 470.239 242.304 468.079V452.954C242.304 449.714 239.063 445.395 235.821 443.233ZM350.327 106.199C346.006 104.039 341.684 106.199 340.606 110.52C339.525 111.601 339.525 112.68 339.525 114.842V129.965C339.525 134.286 342.766 138.605 346.006 140.767C430.264 171.013 473.474 264.993 442.146 348.173C425.943 393.544 390.295 428.109 346.006 444.313C341.684 446.473 339.525 449.714 339.525 455.117V470.239C339.525 474.561 341.684 477.802 346.006 478.88C347.087 478.88 349.247 478.88 350.327 477.802C452.949 445.395 509.123 336.289 476.715 233.668C457.271 172.094 409.739 125.643 350.327 106.199Z" fill="white"/>
</g>
</svg>
