<svg width="583" height="583" viewBox="0 0 583 583" fill="none" xmlns="http://www.w3.org/2000/svg">
<mask id="mask0_3546_2332" style="mask-type:alpha" maskUnits="userSpaceOnUse" x="0" y="0" width="583" height="583">
<circle cx="291.5" cy="291.5" r="291.5" fill="#D9D9D9"/>
</mask>
<g mask="url(#mask0_3546_2332)">
<path d="M583 1H1V583H583V1Z" fill="#50AF95"/>
<path fill-rule="evenodd" clip-rule="evenodd" d="M327.298 303.613C325.294 303.763 314.94 304.381 291.844 304.381C273.474 304.381 260.431 303.83 255.854 303.613C184.862 300.491 131.872 288.138 131.872 273.347C131.872 258.555 184.862 246.218 255.854 243.046V291.31C260.498 291.644 273.79 292.428 292.161 292.428C314.206 292.428 325.244 291.51 327.232 291.326V243.079C398.074 246.235 450.947 258.589 450.947 273.347C450.947 288.104 398.09 300.458 327.232 303.597L327.298 303.613ZM327.298 238.088V194.899H426.164V129.04H156.99V194.899H255.838V238.071C175.493 241.761 115.072 257.67 115.072 276.735C115.072 295.8 175.493 311.694 255.838 315.4V453.796H327.282V315.35C407.443 311.66 467.764 295.767 467.764 276.719C467.764 257.67 407.493 241.777 327.282 238.071L327.298 238.088Z" fill="white"/>
</g>
</svg>
