<svg width="18" height="18" viewBox="0 0 18 18" fill="none" xmlns="http://www.w3.org/2000/svg">
<path d="M17 7C17 4.17157 17 2.75736 16.1213 1.87868C15.2426 1 13.8284 1 11 1H7C4.17157 1 2.75736 1 1.87868 1.87868C1 2.75736 1 4.17157 1 7V11C1 13.8284 1 15.2426 1.87868 16.1213C2.75736 17 4.17157 17 7 17H11C13.8284 17 15.2426 17 16.1213 16.1213C17 15.2426 17 13.8284 17 11V7Z" stroke="#222222"/>
<path d="M6 9L12 9" stroke="#222222" stroke-linecap="round" stroke-linejoin="round"/>
<path d="M9 6L9 12" stroke="#222222" stroke-linecap="round" stroke-linejoin="round"/>
</svg>
