<svg width="59" height="108" viewBox="0 0 59 108" fill="none" xmlns="http://www.w3.org/2000/svg">
<path d="M51.6923 0H12.3077C9.04349 0 5.91298 1.29302 3.60484 3.5946C1.2967 5.89618 0 9.0178 0 12.2727V95.7273C0 98.9822 1.2967 102.104 3.60484 104.405C5.91298 106.707 9.04349 108 12.3077 108H51.6923C54.9565 108 58.087 106.707 60.3952 104.405C62.7033 102.104 64 98.9822 64 95.7273V12.2727C64 9.0178 62.7033 5.89618 60.3952 3.5946C58.087 1.29302 54.9565 0 51.6923 0ZM32 103.091C27.9138 103.091 24.6154 99.8018 24.6154 95.7273C24.6154 91.6527 27.9138 88.3636 32 88.3636C36.0862 88.3636 39.3846 91.6527 39.3846 95.7273C39.3846 99.8018 36.0862 103.091 32 103.091ZM54.1538 83.4545H9.84615V14.7273H54.1538V83.4545Z" fill="#9605C5" fill-opacity="0.05"/>
</svg>
