<svg width="28" height="28" viewBox="0 0 28 28" fill="none" xmlns="http://www.w3.org/2000/svg">
<path fill-rule="evenodd" clip-rule="evenodd" d="M17.2536 4.6847C16.2715 4.19233 15.1651 3.91675 14.0001 3.91675C10.297 3.91675 7.18611 6.70114 6.77717 10.3816L6.48341 13.0255C6.44706 13.3526 6.43097 13.4962 6.40972 13.6362C6.28253 14.4739 6.00945 15.2829 5.60289 16.0264C5.53495 16.1507 5.46076 16.2746 5.29142 16.5568L4.61704 17.6808L4.58893 17.7276C4.23672 18.3146 3.93199 18.8224 3.75246 19.2453C3.56723 19.6815 3.42962 20.2192 3.68943 20.759C3.72315 20.8291 3.76149 20.8968 3.80421 20.9618C4.13342 21.4623 4.66529 21.6209 5.13469 21.6865C5.58968 21.7502 6.1819 21.7501 6.86641 21.7501L6.92104 21.7501H21.0792L21.1338 21.7501C21.8183 21.7501 22.4105 21.7502 22.8655 21.6865C23.3349 21.6209 23.8668 21.4623 24.196 20.9618C24.2387 20.8968 24.2771 20.8291 24.3108 20.759C24.5706 20.2192 24.433 19.6815 24.2478 19.2453C24.0682 18.8224 23.7635 18.3146 23.4113 17.7276L23.3832 17.6808L22.7088 16.5568C22.5395 16.2746 22.4653 16.1507 22.3973 16.0264C21.9908 15.2829 21.7177 14.4739 21.5905 13.6362C21.5692 13.4962 21.5532 13.3526 21.5168 13.0255L21.4249 12.1985C20.9661 12.3797 20.469 12.4849 19.949 12.4986L20.026 13.1911L20.0279 13.2085C20.0618 13.5135 20.0812 13.6881 20.1075 13.8613C20.261 14.8724 20.5906 15.8488 21.0812 16.7461C21.1653 16.8998 21.2557 17.0504 21.4135 17.3135L21.4226 17.3286L22.0969 18.4525C22.4854 19.0999 22.7335 19.517 22.867 19.8314C22.9417 20.0072 22.9532 20.09 22.9537 20.1192L22.9491 20.1273C22.9239 20.1419 22.8469 20.1746 22.6578 20.201C22.3194 20.2483 21.8341 20.2501 21.0792 20.2501H6.92104C6.16606 20.2501 5.68076 20.2483 5.34242 20.201C5.15328 20.1746 5.07634 20.1419 5.05109 20.1273L5.04647 20.1192C5.04697 20.09 5.05854 20.0072 5.13318 19.8314C5.26668 19.517 5.51485 19.0999 5.90328 18.4525L6.57766 17.3286L6.58671 17.3135C6.74455 17.0504 6.83493 16.8998 6.91897 16.7461C7.40965 15.8488 7.73922 14.8724 7.89272 13.8613C7.91901 13.6881 7.93841 13.5135 7.97229 13.2086L7.97423 13.1911L8.268 10.5472C8.59253 7.62644 11.0613 5.41675 14.0001 5.41675C14.7673 5.41675 15.5025 5.56735 16.1759 5.84189C16.4616 5.39332 16.8276 5.00085 17.2536 4.6847ZM19.0578 5.96542C18.5645 6.13922 18.1472 6.47413 17.869 6.90697C18.8703 7.81261 19.5554 9.06853 19.7265 10.4977C19.7619 10.4993 19.7976 10.5001 19.8334 10.5001C20.3358 10.5001 20.8011 10.3413 21.1819 10.0712C20.9331 8.46036 20.1636 7.03668 19.0578 5.96542ZM22.9533 20.1243L22.9537 20.1228L22.9537 20.124L22.9533 20.1243ZM22.9532 20.1248L22.9533 20.1243L22.9522 20.1255L22.9532 20.1248ZM22.9537 20.1245L22.9537 20.124C22.9569 20.1209 22.9591 20.1195 22.9595 20.1197C22.9598 20.1198 22.9582 20.1216 22.9537 20.1245ZM22.9537 20.1245L22.9532 20.1248C22.9522 20.1292 22.9522 20.1317 22.9525 20.132C22.9528 20.1322 22.9535 20.1299 22.9537 20.1245ZM5.04687 20.1243L5.048 20.1255L5.04699 20.1248L5.04687 20.1243ZM5.0465 20.124L5.04687 20.1243L5.04647 20.1228L5.0465 20.124ZM5.04652 20.1245L5.04699 20.1248C5.048 20.1292 5.048 20.1317 5.04769 20.132C5.04737 20.1322 5.04672 20.1299 5.04652 20.1245ZM5.04652 20.1245L5.0465 20.124C5.04328 20.1209 5.0411 20.1195 5.04074 20.1197C5.04037 20.1198 5.04198 20.1216 5.04652 20.1245Z" fill="#27014F"/>
<path d="M10.6193 21.4735C10.8187 22.3418 11.2581 23.109 11.8693 23.6562C12.4806 24.2034 13.2295 24.5 14 24.5C14.7705 24.5 15.5194 24.2034 16.1307 23.6562C16.7419 23.109 17.1813 22.3418 17.3807 21.4735" stroke="#27014F" stroke-width="1.5" stroke-linecap="round"/>
<circle cx="19.8333" cy="8.16658" r="2.33333" fill="#F80004"/>
</svg>
