<svg width="40" height="40" viewBox="0 0 40 40" fill="none" xmlns="http://www.w3.org/2000/svg">
<circle cx="20" cy="20" r="20" fill="#32A071" fill-opacity="0.2"/>
<path d="M14.1225 26.3518L14.1051 27.3517L13.1052 27.3342L13.1227 26.3344L14.1225 26.3518ZM25.0928 14.3678C25.4901 13.9841 26.1232 13.9952 26.5068 14.3924C26.8905 14.7897 26.8794 15.4228 26.4822 15.8064L25.0928 14.3678ZM23.277 27.5118L14.1051 27.3517L14.14 25.352L23.3119 25.5121L23.277 27.5118ZM13.1227 26.3344L13.2828 17.1625L15.2825 17.1974L15.1224 26.3693L13.1227 26.3344ZM13.4279 25.6325L25.0928 14.3678L26.4822 15.8064L14.8172 27.0712L13.4279 25.6325Z" fill="#32A071"/>
</svg>
