<svg width="40" height="40" viewBox="0 0 40 40" fill="none" xmlns="http://www.w3.org/2000/svg">
<circle cx="20" cy="20" r="20" fill="#FF3366" fill-opacity="0.2"/>
<path d="M25.5754 14.425L25.5754 13.425L26.5754 13.425L26.5754 14.425L25.5754 14.425ZM14.8159 26.5987C14.4254 26.9892 13.7922 26.9892 13.4017 26.5987C13.0112 26.2082 13.0112 25.575 13.4017 25.1845L14.8159 26.5987ZM16.4021 13.425L25.5754 13.425L25.5754 15.425L16.4021 15.425L16.4021 13.425ZM26.5754 14.425L26.5754 23.5983H24.5754L24.5754 14.425L26.5754 14.425ZM26.2825 15.1321L14.8159 26.5987L13.4017 25.1845L24.8683 13.7179L26.2825 15.1321Z" fill="#FF3366"/>
</svg>
