<svg width="64" height="107" viewBox="0 0 64 107" fill="none" xmlns="http://www.w3.org/2000/svg">
<path d="M24.8499 99.8667H46.1497V107H24.8499V99.8667ZM21.2999 89.1667H49.6997V96.3H21.2999V89.1667ZM60.6647 10.4081C53.993 3.69606 45.0559 0.000101081 35.4998 0.000101081C30.8348 -0.0110703 26.2136 0.903849 21.9015 2.69231C17.5895 4.48077 13.6716 7.10753 10.3729 10.4217C7.07426 13.7359 4.4598 17.6722 2.67971 22.0045C0.899619 26.3368 -0.0110185 30.9798 0.000100608 35.6667C0.000100608 46.0591 3.96498 55.7805 10.8719 62.3365L11.8393 63.2482C15.8352 67.0021 21.2999 72.1448 21.2999 76.6834V85.6H31.9499V56.4225L22.1253 50.8251L26.1811 44.9668L35.4998 49.9334L44.661 44.9423L48.8988 50.6668L39.0498 56.4626V85.6H49.6997V76.6834C49.6997 72.2518 55.1045 67.1136 59.0517 63.3596L60.1411 62.3209C67.2455 55.5063 70.9995 46.2798 70.9995 35.6667C71.0231 30.9793 70.1218 26.3337 68.3479 21.9983C66.5741 17.6629 63.9627 13.7236 60.6647 10.4081Z" fill="#9605C5" fill-opacity="0.1"/>
</svg>
