<svg width="80" height="120" viewBox="0 0 80 120" fill="none" xmlns="http://www.w3.org/2000/svg">
<path d="M60.2727 83.0769C63.192 86.9517 67.262 89.8139 71.9061 91.258C76.5503 92.7022 81.5331 92.6551 86.1489 91.1235C90.7647 89.5918 94.7794 86.6533 97.6243 82.7241C100.469 78.7949 102 74.0742 102 69.2308C102 64.0246 100.201 59.2708 97.2802 55.4123L97.3636 55.3846L51 0L4.63636 55.3846L4.71982 55.4123C1.67414 59.3824 0.0165824 64.2354 0 69.2308C0 74.0742 1.53087 78.7949 4.37575 82.7241C7.22063 86.6533 11.2353 89.5918 15.8511 91.1235C20.4669 92.6551 25.4497 92.7022 30.0939 91.258C34.738 89.8139 38.808 86.9517 41.7273 83.0769L46.3636 76.9292V96.9231C46.3636 110.769 23.1818 110.769 23.1818 110.769C21.9522 110.769 20.7729 111.255 19.9034 112.121C19.0339 112.987 18.5455 114.161 18.5455 115.385C18.5455 116.609 19.0339 117.783 19.9034 118.648C20.7729 119.514 21.9522 120 23.1818 120H78.8182C80.0478 120 81.2271 119.514 82.0966 118.648C82.9661 117.783 83.4545 116.609 83.4545 115.385C83.4545 114.161 82.9661 112.987 82.0966 112.121C81.2271 111.255 80.0478 110.769 78.8182 110.769C78.8182 110.769 55.6364 110.769 55.6364 96.9231V76.9292L60.2727 83.0769Z" fill="#9605C5" fill-opacity="0.05"/>
</svg>
