<svg width="18" height="18" viewBox="0 0 18 18" fill="none" xmlns="http://www.w3.org/2000/svg">
<circle cx="9" cy="9" r="9" fill="#32A071" fill-opacity="0.2"/>
<path d="M6.35614 11.8583L6.34741 12.3582L5.84749 12.3495L5.85621 11.8496L6.35614 11.8583ZM11.258 6.42952C11.4567 6.23769 11.7732 6.24322 11.965 6.44186C12.1569 6.6405 12.1513 6.95703 11.9527 7.14886L11.258 6.42952ZM10.4748 12.4303L6.34741 12.3582L6.36486 11.3584L10.4922 11.4304L10.4748 12.4303ZM5.85621 11.8496L5.92826 7.72224L6.9281 7.73969L6.85606 11.867L5.85621 11.8496ZM6.00881 11.4986L11.258 6.42952L11.9527 7.14886L6.70347 12.218L6.00881 11.4986Z" fill="#32A071"/>
</svg>
