<svg width="89" height="106" viewBox="0 0 89 106" fill="none" xmlns="http://www.w3.org/2000/svg">
<path d="M50.2823 67.4637C55.1894 67.446 65.9178 67.4063 65.7941 60.5824C65.6748 53.604 55.3705 54.0236 50.3486 54.2312C49.7832 54.2577 49.2944 54.2739 48.8822 54.2798L49.1119 67.4725C49.4475 67.4637 49.8377 67.4607 50.2823 67.4637ZM49.7611 48.2377C53.8555 48.2333 62.7907 48.2244 62.6847 42.019C62.5698 35.6721 53.988 36.0475 49.7965 36.233C49.3253 36.2566 48.916 36.2713 48.5686 36.2772L48.7762 48.2421L49.7611 48.2377Z" fill="#9605C5" fill-opacity="0.05"/>
<path fill-rule="evenodd" clip-rule="evenodd" d="M40.1716 104.414C68.5716 111.494 97.3337 94.2109 104.414 65.8202C111.494 37.4251 94.2066 8.66343 65.8066 1.58784C37.4243 -5.49659 8.66217 11.7905 1.58646 40.19C-5.49366 68.5807 11.7893 97.3424 40.176 104.418M59.0887 29.2454C66.8358 29.793 73.0016 32.0632 73.8099 39.1477C74.4106 44.3329 72.2905 47.4908 68.8498 49.3194C74.5917 50.5914 78.2355 53.926 77.6613 61.5581C76.9502 71.032 69.9408 73.6953 59.8793 74.4505L60.0471 84.3882L54.058 84.4942L53.8857 74.689C52.3369 74.7185 50.741 74.7303 49.0979 74.7244L49.2746 84.5737L43.2854 84.6797L43.1087 74.7244L41.4171 74.7376C40.5573 74.7376 39.6946 74.7464 38.8289 74.7641L31.0288 74.8966L32.0933 67.7239C32.0933 67.7239 36.5277 67.715 36.4482 67.6488C38.1443 67.6134 38.5727 66.39 38.6654 65.6215L38.3916 49.9068L38.82 49.898H39.0232C38.8122 49.8724 38.5997 49.862 38.3872 49.867L38.1929 38.6486C37.9411 37.4384 37.1284 36.0427 34.7036 36.0869C34.7698 35.9985 30.3486 36.1619 30.3486 36.1619L30.2338 29.7665L38.502 29.6252V29.6561C39.7476 29.6326 41.0181 29.5943 42.3137 29.5413L42.1459 19.6964L48.1351 19.5948L48.3029 29.2409C49.9018 29.1835 51.5095 29.1217 53.0863 29.0952L52.9184 19.5109L58.912 19.4049L59.0887 29.2454Z" fill="#9605C5" fill-opacity="0.05"/>
</svg>
