<svg width="20" height="20" viewBox="0 0 20 20" fill="none" xmlns="http://www.w3.org/2000/svg">
<path d="M9.4875 12.7292C10.4133 12.7258 12.4375 12.7183 12.4142 11.4308C12.3917 10.1142 10.4475 10.1933 9.5 10.2325C9.39334 10.2375 9.30111 10.2406 9.22334 10.2417L9.26667 12.7308C9.33 12.7292 9.40361 12.7286 9.4875 12.7292ZM9.38917 9.10167C10.1617 9.10084 11.8475 9.09917 11.8275 7.92834C11.8058 6.73084 10.1867 6.80167 9.39584 6.83667C9.30695 6.84112 9.22972 6.84389 9.16417 6.845L9.20334 9.1025L9.38917 9.10167Z" fill="#27014F"/>
<path fill-rule="evenodd" clip-rule="evenodd" d="M7.58013 19.7009C12.9385 21.0367 18.3651 17.7759 19.701 12.4192C21.0368 7.06174 17.7751 1.63508 12.4168 0.300076C7.0618 -1.03659 1.63513 2.22508 0.300134 7.58341C-1.0357 12.9401 2.22513 18.3667 7.58097 19.7017M11.1493 5.51841C12.611 5.62174 13.7743 6.05008 13.9268 7.38674C14.0401 8.36508 13.6401 8.96091 12.991 9.30591C14.0743 9.54591 14.7618 10.1751 14.6535 11.6151C14.5193 13.4026 13.1968 13.9051 11.2985 14.0476L11.3301 15.9226L10.2001 15.9426L10.1676 14.0926C9.87541 14.0981 9.5743 14.1004 9.2643 14.0992L9.29764 15.9576L8.16763 15.9776L8.1343 14.0992L7.81514 14.1017C7.65291 14.1017 7.49014 14.1034 7.3268 14.1067L5.85513 14.1317L6.05597 12.7784C6.05597 12.7784 6.89264 12.7767 6.87764 12.7642C7.19764 12.7576 7.27847 12.5267 7.29597 12.3817L7.2443 9.41674L7.32514 9.41508H7.36347C7.32366 9.41025 7.28356 9.4083 7.24347 9.40924L7.2068 7.29258C7.1593 7.06424 7.00597 6.80091 6.54847 6.80924C6.56097 6.79258 5.7268 6.82341 5.7268 6.82341L5.70514 5.61674L7.26514 5.59008V5.59591C7.50014 5.59146 7.73986 5.58424 7.9843 5.57424L7.95264 3.71674L9.08264 3.69758L9.1143 5.51758C9.41597 5.50674 9.7193 5.49508 10.0168 5.49008L9.98514 3.68174L11.116 3.66174L11.1493 5.51841Z" fill="#27014F"/>
</svg>
