<svg width="100" height="94" viewBox="0 0 100 94" fill="none" xmlns="http://www.w3.org/2000/svg">
<path d="M61 94C68.4865 94 74.5555 87.9884 74.5555 80.5727C74.5555 73.1571 68.4865 67.1455 61 67.1455C53.5135 67.1455 47.4444 73.1571 47.4444 80.5727C47.4444 87.9884 53.5135 94 61 94Z" fill="#9605C5" fill-opacity="0.05"/>
<path d="M0 29.5488C7.63247 20.2619 17.0191 12.8241 27.5364 7.72946C38.0537 2.63483 49.4608 0 61 0C72.5392 0 83.9463 2.63483 94.4636 7.72946C104.981 12.8241 114.368 20.2619 122 29.5488L111.833 38.9478C105.473 31.0183 97.6507 24.6675 88.8863 20.3175C80.1219 15.9675 70.616 13.7177 61 13.7177C51.384 13.7177 41.878 15.9675 33.1137 20.3175C24.3493 24.6675 16.5271 31.0183 10.1667 38.9478L0 29.5488ZM25.0778 51.0324C29.5314 45.58 35.0837 41.1977 41.3467 38.1916C47.6098 35.1855 54.4327 33.628 61.3389 33.628C68.245 33.628 75.0679 35.1855 81.331 38.1916C87.5941 41.1977 93.1464 45.58 97.6 51.0324L88.1111 60.4315C84.9357 56.2757 80.9119 52.9217 76.3368 50.617C71.7618 48.3123 66.7522 47.1159 61.6778 47.1159C56.6034 47.1159 51.5938 48.3123 47.0187 50.617C42.4436 52.9217 38.4199 56.2757 35.2444 60.4315L25.0778 51.0324Z" fill="#9605C5" fill-opacity="0.05"/>
</svg>
