<svg width="23" height="23" viewBox="0 0 23 23" fill="none" xmlns="http://www.w3.org/2000/svg">
<path fill-rule="evenodd" clip-rule="evenodd" d="M15.271 12.1915C15.3118 11.9672 15.3332 11.7361 15.3332 11.5001C15.3332 9.38299 13.6169 7.66675 11.4998 7.66675C11.2638 7.66675 11.0327 7.68809 10.8084 7.72894L12.4461 9.36659C12.9741 9.60111 13.3988 10.0259 13.6333 10.5538L15.271 12.1915ZM9.37389 10.537C9.24068 10.8306 9.1665 11.1567 9.1665 11.5001C9.1665 12.7887 10.2112 13.8334 11.4998 13.8334C11.8432 13.8334 12.1693 13.7592 12.4629 13.626L13.5662 14.7294C12.9699 15.1117 12.2608 15.3334 11.4998 15.3334C9.38275 15.3334 7.6665 13.6172 7.6665 11.5001C7.6665 10.7391 7.88822 10.03 8.27057 9.43371L9.37389 10.537Z" fill="#27014F"/>
<path fill-rule="evenodd" clip-rule="evenodd" d="M15.6229 16.7859L14.5191 15.6821C13.565 16.1819 12.5454 16.5 11.5 16.5C9.99049 16.5 8.53438 15.8366 7.25211 14.9206C5.97548 14.0088 4.93306 12.8905 4.26692 12.0866C4.05837 11.835 3.9561 11.7085 3.89489 11.6063C3.85525 11.5401 3.85535 11.5213 3.85546 11.5028L3.85547 11.5L3.85546 11.4972C3.85535 11.4787 3.85525 11.4599 3.89489 11.3937C3.9561 11.2915 4.05837 11.165 4.26693 10.9134C4.89897 10.1506 5.86976 9.10489 7.05796 8.22091L5.98714 7.1501C4.74948 8.10066 3.75639 9.17857 3.11195 9.95626C3.08942 9.98344 3.0665 10.0109 3.04335 10.0385C2.72206 10.4229 2.35547 10.8614 2.35547 11.5C2.35547 12.1386 2.72206 12.5771 3.04335 12.9615C3.0665 12.9891 3.08942 13.0166 3.11195 13.0437C3.82327 13.9021 4.95934 15.1263 6.38024 16.1412C7.7955 17.1522 9.55597 18 11.5 18C13.0104 18 14.41 17.4882 15.6229 16.7859ZM8.66187 5.58218C9.54437 5.22534 10.4978 5 11.5 5C13.4441 5 15.2046 5.84785 16.6198 6.85876C18.0407 7.87371 19.1768 9.09787 19.8881 9.95626C19.9106 9.98336 19.9334 10.0107 19.9565 10.0383L19.9567 10.0385C20.278 10.4229 20.6446 10.8614 20.6446 11.5C20.6446 12.1386 20.278 12.5771 19.9567 12.9615C19.9336 12.9891 19.9107 13.0166 19.8881 13.0437C19.4363 13.589 18.8131 14.2818 18.0545 14.9748L16.9926 13.9129C17.7062 13.2667 18.2994 12.61 18.7332 12.0866C18.9417 11.835 19.044 11.7085 19.1052 11.6063C19.1448 11.5401 19.1447 11.5213 19.1446 11.5028L19.1446 11.5L19.1446 11.4972C19.1447 11.4787 19.1448 11.4599 19.1052 11.3937C19.044 11.2915 18.9417 11.165 18.7332 10.9134C18.067 10.1095 17.0246 8.99125 15.748 8.07935C14.4657 7.16343 13.0096 6.5 11.5 6.5C10.9359 6.5 10.3792 6.59266 9.83623 6.75654L8.66187 5.58218Z" fill="#27014F"/>
<path d="M6 3L21.3333 18.3333" stroke="#27014F" stroke-width="1.5"/>
</svg>
