<svg width="23" height="23" viewBox="0 0 23 23" fill="none" xmlns="http://www.w3.org/2000/svg">
<path fill-rule="evenodd" clip-rule="evenodd" d="M15.2712 12.1915C15.312 11.9672 15.3334 11.7361 15.3334 11.5001C15.3334 9.38299 13.6171 7.66675 11.5 7.66675C11.264 7.66675 11.0329 7.68809 10.8086 7.72894L12.4463 9.36659C12.9742 9.60111 13.399 10.0259 13.6335 10.5538L15.2712 12.1915ZM9.37407 10.537C9.24087 10.8306 9.16669 11.1567 9.16669 11.5001C9.16669 12.7887 10.2114 13.8334 11.5 13.8334C11.8434 13.8334 12.1695 13.7592 12.4631 13.626L13.5664 14.7294C12.9701 15.1117 12.261 15.3334 11.5 15.3334C9.38293 15.3334 7.66669 13.6172 7.66669 11.5001C7.66669 10.7391 7.8884 10.03 8.27075 9.43371L9.37407 10.537Z" fill="white"/>
<path fill-rule="evenodd" clip-rule="evenodd" d="M15.6228 16.7859L14.5191 15.6821C13.565 16.1819 12.5453 16.5 11.5 16.5C9.99043 16.5 8.53432 15.8366 7.25205 14.9206C5.97541 14.0088 4.933 12.8905 4.26686 12.0866C4.05831 11.835 3.95604 11.7085 3.89483 11.6063C3.85519 11.5401 3.85529 11.5213 3.8554 11.5028L3.85541 11.5L3.8554 11.4972C3.85529 11.4787 3.85519 11.4599 3.89483 11.3937C3.95604 11.2915 4.05831 11.165 4.26686 10.9134C4.89891 10.1506 5.8697 9.10489 7.0579 8.22091L5.98708 7.1501C4.74941 8.10066 3.75633 9.17857 3.11189 9.95626C3.08936 9.98344 3.06644 10.0109 3.04329 10.0385C2.722 10.4229 2.35541 10.8614 2.35541 11.5C2.35541 12.1386 2.722 12.5771 3.04329 12.9615C3.06644 12.9891 3.08936 13.0166 3.11189 13.0437C3.82321 13.9021 4.95928 15.1263 6.38018 16.1412C7.79544 17.1522 9.5559 18 11.5 18C13.0104 18 14.4099 17.4882 15.6228 16.7859ZM8.66181 5.58218C9.54431 5.22534 10.4977 5 11.5 5C13.4441 5 15.2045 5.84785 16.6198 6.85876C18.0407 7.87371 19.1768 9.09787 19.8881 9.95626C19.9105 9.98336 19.9334 10.0107 19.9565 10.0383L19.9567 10.0385C20.278 10.4229 20.6446 10.8614 20.6446 11.5C20.6446 12.1386 20.278 12.5771 19.9567 12.9615L19.9565 12.9617C19.9334 12.9893 19.9105 13.0166 19.8881 13.0437C19.4363 13.589 18.8131 14.2818 18.0544 14.9748L16.9926 13.9129C17.7061 13.2667 18.2994 12.61 18.7331 12.0866C18.9417 11.835 19.0439 11.7085 19.1051 11.6063C19.1448 11.5401 19.1447 11.5213 19.1446 11.5028L19.1446 11.5L19.1446 11.4972C19.1447 11.4787 19.1448 11.4599 19.1051 11.3937C19.0439 11.2915 18.9417 11.165 18.7331 10.9134C18.067 10.1095 17.0245 8.99125 15.7479 8.07935C14.4656 7.16343 13.0095 6.5 11.5 6.5C10.9358 6.5 10.3791 6.59266 9.83616 6.75654L8.66181 5.58218Z" fill="white"/>
<path d="M6 3L21.3333 18.3333" stroke="white" stroke-width="1.5"/>
</svg>
