<svg width="98" height="106" viewBox="0 0 98 106" fill="none" xmlns="http://www.w3.org/2000/svg">
<path d="M43.4375 0H23.8906C17.5544 0 11.4778 2.55929 6.9974 7.11486C2.51704 11.6704 0 17.8491 0 24.2917V44.1667H19.7033C17.7912 40.7987 17.0254 36.8834 17.5248 33.0278C18.0241 29.1723 19.7606 25.592 22.4651 22.8422C25.1695 20.0924 28.6907 18.3267 32.4826 17.819C36.2744 17.3112 40.1251 18.0898 43.4375 20.034V0ZM52.125 35.3333V44.1667H60.8125C62.5307 44.1667 64.2104 43.6486 65.639 42.678C67.0677 41.7074 68.1812 40.3278 68.8387 38.7137C69.4962 37.0996 69.6683 35.3235 69.3331 33.61C68.9979 31.8965 68.1705 30.3226 66.9555 29.0872C65.7405 27.8519 64.1926 27.0106 62.5073 26.6697C60.8221 26.3289 59.0754 26.5038 57.4879 27.1724C55.9005 27.841 54.5437 28.9732 53.5891 30.4258C52.6345 31.8784 52.125 33.5863 52.125 35.3333ZM75.8593 44.1667C77.7713 40.7987 78.5371 36.8834 78.0377 33.0278C77.5384 29.1723 75.8018 25.592 73.0974 22.8422C70.393 20.0924 66.8718 18.3267 63.0799 17.819C59.2881 17.3112 55.4374 18.0898 52.125 20.034V0H115.109C121.446 0 127.522 2.55929 132.003 7.11486C136.483 11.6704 139 17.8491 139 24.2917V44.1667H75.8593ZM58.2671 53L72.5754 67.5397C73.391 68.369 73.8492 69.4938 73.8492 70.6667C73.8492 71.8395 73.391 72.9643 72.5754 73.7937C71.7597 74.623 70.6535 75.0889 69.5 75.0889C68.3465 75.0889 67.2403 74.623 66.4246 73.7937L52.125 59.2452V106H115.109C121.446 106 127.522 103.441 132.003 98.8851C136.483 94.3296 139 88.1509 139 81.7083V53H58.2671ZM43.4375 106V59.2452L29.1379 73.7937C28.3222 74.623 27.216 75.0889 26.0625 75.0889C24.909 75.0889 23.8028 74.623 22.9871 73.7937C22.1715 72.9643 21.7133 71.8395 21.7133 70.6667C21.7133 69.4938 22.1715 68.369 22.9871 67.5397L37.2954 53H0V81.7083C0 88.1509 2.51704 94.3296 6.9974 98.8851C11.4778 103.441 17.5544 106 23.8906 106H43.4375ZM43.4375 35.3333C43.4375 33.5863 42.928 31.8784 41.9734 30.4258C41.0188 28.9732 39.662 27.841 38.0746 27.1724C36.4871 26.5038 34.7404 26.3289 33.0552 26.6697C31.3699 27.0106 29.822 27.8519 28.607 29.0872C27.392 30.3226 26.5646 31.8965 26.2294 33.61C25.8942 35.3235 26.0663 37.0996 26.7238 38.7137C27.3813 40.3278 28.4948 41.7074 29.9235 42.678C31.3521 43.6486 33.0318 44.1667 34.75 44.1667H43.4375V35.3333Z" fill="#9605C5" fill-opacity="0.05"/>
</svg>
