<svg width="18" height="14" viewBox="0 0 18 14" fill="none" xmlns="http://www.w3.org/2000/svg">
<path d="M5.625 0.159912H3.09375C2.27324 0.159912 1.48633 0.490206 0.906138 1.07813C0.325948 1.66606 0 2.46346 0 3.29491V5.85991H2.5515C2.30389 5.42526 2.20473 4.91995 2.26939 4.42237C2.33406 3.92479 2.55893 3.46273 2.90914 3.10785C3.25936 2.75296 3.71534 2.52509 4.20637 2.45957C4.69741 2.39404 5.19606 2.49452 5.625 2.74543V0.159912ZM6.75 4.71991V5.85991H7.875C8.0975 5.85991 8.31501 5.79305 8.50002 5.66779C8.68502 5.54252 8.82922 5.36448 8.91436 5.15617C8.99951 4.94786 9.02179 4.71865 8.97838 4.49751C8.93498 4.27637 8.82783 4.07324 8.6705 3.91381C8.51316 3.75438 8.31271 3.6458 8.09448 3.60182C7.87625 3.55783 7.65005 3.58041 7.44448 3.66669C7.23891 3.75297 7.06321 3.89909 6.9396 4.08656C6.81598 4.27403 6.75 4.49444 6.75 4.71991ZM9.8235 5.85991C10.0711 5.42526 10.1703 4.91995 10.1056 4.42237C10.0409 3.92479 9.81607 3.46273 9.46585 3.10785C9.11564 2.75296 8.65966 2.52509 8.16863 2.45957C7.67759 2.39404 7.17894 2.49452 6.75 2.74543V0.159912H14.9063C15.7268 0.159912 16.5137 0.490206 17.0939 1.07813C17.6741 1.66606 18 2.46346 18 3.29491V5.85991H9.8235ZM7.54537 6.99991L9.39825 8.87635C9.50387 8.98338 9.56321 9.12855 9.56321 9.27991C9.56321 9.43128 9.50387 9.57644 9.39825 9.68347C9.29263 9.7905 9.14937 9.85063 9 9.85063C8.85063 9.85063 8.70737 9.7905 8.60175 9.68347L6.75 7.80589V13.8399H14.9063C15.7268 13.8399 16.5137 13.5096 17.0939 12.9217C17.6741 12.3338 18 11.5364 18 10.7049V6.99991H7.54537ZM5.625 13.8399V7.80589L3.77325 9.68347C3.66763 9.7905 3.52437 9.85063 3.375 9.85063C3.22563 9.85063 3.08237 9.7905 2.97675 9.68347C2.87113 9.57644 2.81179 9.43128 2.81179 9.27991C2.81179 9.12855 2.87113 8.98338 2.97675 8.87635L4.82963 6.99991H0V10.7049C0 11.5364 0.325948 12.3338 0.906138 12.9217C1.48633 13.5096 2.27324 13.8399 3.09375 13.8399H5.625ZM5.625 4.71991C5.625 4.49444 5.55902 4.27403 5.4354 4.08656C5.31179 3.89909 5.13609 3.75297 4.93052 3.66669C4.72495 3.58041 4.49875 3.55783 4.28052 3.60182C4.06229 3.6458 3.86184 3.75438 3.70451 3.91381C3.54717 4.07324 3.44002 4.27637 3.39662 4.49751C3.35321 4.71865 3.37549 4.94786 3.46064 5.15617C3.54578 5.36448 3.68998 5.54252 3.87498 5.66779C4.05999 5.79305 4.2775 5.85991 4.5 5.85991H5.625V4.71991Z" fill="#27014F"/>
</svg>
