<svg width="113" height="113" viewBox="0 0 113 113" fill="none" xmlns="http://www.w3.org/2000/svg">
<circle cx="56.5" cy="56.5" r="56.5" fill="#FFEEF2"/>
<path d="M57.8939 31.8194L78.8854 37.4172C79.3232 37.5339 79.6278 37.9303 79.6278 38.3834V64.4132C79.6278 66.4193 78.6251 68.2927 76.9559 69.4055L57.6756 82.2591C57.3397 82.483 56.9021 82.483 56.5662 82.2591L37.2858 69.4055C35.6166 68.2927 34.614 66.4193 34.614 64.4132V38.3834C34.614 37.9303 34.9186 37.5339 35.3563 37.4172L56.3479 31.8194C56.8544 31.6844 57.3874 31.6844 57.8939 31.8194Z" fill="#FF3366" fill-opacity="0.2" stroke="#FF3366" stroke-width="2.5" stroke-linecap="round"/>
<path d="M49.6185 55.6205L55.4436 61.4456C55.5412 61.5432 55.6995 61.5432 55.7971 61.4456L66.1235 51.1191" stroke="#FF3366" stroke-width="2.5" stroke-linecap="round"/>
</svg>
