<svg width="184" height="50" viewBox="0 0 184 50" fill="none" xmlns="http://www.w3.org/2000/svg">
<path fill-rule="evenodd" clip-rule="evenodd" d="M6.85918 29.3776L18.372 35.7295V21.6362L49.377 2.61249C49.5369 3.04475 49.6242 3.51218 49.6242 4V45.6242C49.6242 47.8334 47.8334 49.6242 45.6242 49.6242H29.8848V28.3851L18.372 35.928V49.6242H4C1.79086 49.6242 0 47.8334 0 45.6242V4C0 1.79086 1.79086 0 4 0H31.7094L6.85918 15.2843V29.3776ZM47.0012 0.243298C47.8682 0.561172 48.5945 1.17063 49.0614 1.95288L47.0012 0.243298Z" fill="#8003A9"/>
<path d="M110.128 6.80005H100.334L103.078 15.0313C103.267 15.5991 103.799 15.9821 104.397 15.9821C104.911 15.9821 105.382 15.699 105.624 15.246L110.128 6.80005Z" fill="#8003A9"/>
<path d="M96.6614 6.79995H85.643L95.9239 39.266C96.7275 41.8036 99.0824 43.528 101.744 43.528C103.905 43.528 105.905 42.3856 107.003 40.5243L119.31 19.6548L125.432 30.0611H145.632L151.754 6.79995H141.959L135.226 28.8368L123.998 8.519C122.994 6.703 121.083 5.57568 119.008 5.57568C116.929 5.57568 115.015 6.70745 114.013 8.52907L102.171 30.0611L96.6614 6.79995Z" fill="#8003A9"/>
<path d="M63.6062 6.80005L56.8727 15.9821H73.4004L81.9702 42.916H92.3765L81.9702 6.80005H63.6062Z" fill="#8003A9"/>
<path d="M167.057 6.18799H156.038V28.734C156.038 31.4955 153.8 33.734 151.038 33.734H115.638L110.128 42.916H158.057C163.027 42.916 167.057 38.8866 167.057 33.916V6.18799Z" fill="#8003A9"/>
<path d="M170.235 6.1333L184 6.1333V9.44521H178.475V14.8446H184V18.1498H170.235V14.8446H175.767V9.44521H170.235V6.1333Z" fill="#8003A9"/>
<path d="M184 27.5751V30.8803H175.122C174.095 30.8803 173.202 30.6372 172.44 30.151C171.683 29.6648 171.096 28.9868 170.679 28.117C170.267 27.2472 170.061 26.2369 170.061 25.0861C170.061 23.9219 170.267 22.9049 170.679 22.0352C171.096 21.1654 171.683 20.4896 172.44 20.0079C173.202 19.5261 174.095 19.2853 175.122 19.2853H184V22.5972H175.411C174.936 22.5972 174.512 22.6998 174.14 22.9049C173.768 23.1146 173.477 23.4067 173.267 23.7814C173.056 24.1561 172.951 24.591 172.951 25.0861C172.951 25.5812 173.056 26.0139 173.267 26.3841C173.477 26.7588 173.768 27.051 174.14 27.2606C174.512 27.4703 174.936 27.5751 175.411 27.5751H184Z" fill="#8003A9"/>
<path d="M170.235 32.014H184V37.7279C184 38.7538 183.854 39.6125 183.563 40.3038C183.272 40.9997 182.864 41.5216 182.34 41.8695C181.816 42.2219 181.209 42.398 180.519 42.398C179.994 42.398 179.526 42.2888 179.114 42.0702C178.706 41.8516 178.368 41.5506 178.099 41.167C177.83 40.7833 177.642 40.3395 177.534 39.8355H177.4C177.373 40.3886 177.223 40.8993 176.95 41.3677C176.676 41.8405 176.295 42.2196 175.807 42.5051C175.323 42.7906 174.75 42.9333 174.086 42.9333C173.347 42.9333 172.686 42.746 172.104 42.3713C171.526 41.9966 171.069 41.4546 170.733 40.7454C170.401 40.0362 170.235 39.1753 170.235 38.1628V32.014ZM172.917 35.3259V37.3733C172.917 38.0914 173.054 38.62 173.327 38.959C173.6 39.3025 173.981 39.4742 174.47 39.4742C174.824 39.4742 175.128 39.3917 175.384 39.2266C175.644 39.0616 175.843 38.8274 175.982 38.5241C176.125 38.2208 176.197 37.8573 176.197 37.4335V35.3259H172.917ZM178.341 35.3259V37.1592C178.341 37.5205 178.401 37.8417 178.522 38.1227C178.643 38.4037 178.818 38.6222 179.047 38.7784C179.275 38.9389 179.551 39.0192 179.873 39.0192C180.335 39.0192 180.698 38.8564 180.962 38.5308C181.226 38.2052 181.359 37.7658 181.359 37.2127V35.3259H178.341Z" fill="#8003A9"/>
</svg>
