<svg width="506" height="253" viewBox="0 0 506 253" fill="none" xmlns="http://www.w3.org/2000/svg">
<path d="M-37.0288 141.932C-34.2753 120.291 -21.5539 101.872 -3.08872 85.4176C15.3769 68.9627 39.5496 54.505 65.1356 40.7795C75.8352 35.0398 86.7887 29.4248 97.6718 23.8459C112.79 16.0962 127.772 8.41622 141.747 0.56884C165.792 -12.9327 186.944 -26.9746 200.835 -42.8243C228.564 -74.4612 241.472 -101.198 248.506 -128.405C253.454 -147.548 255.495 -166.933 257.754 -188.392C258.702 -197.397 259.688 -206.768 260.944 -216.639C265.182 -249.946 287.416 -283.366 317.543 -303.633C347.662 -323.894 385.608 -330.972 421.288 -311.719C456.98 -292.459 479.027 -249.512 496.84 -201.537C503.532 -183.516 509.618 -164.809 515.605 -146.404C517.585 -140.321 519.553 -134.271 521.529 -128.29C529.48 -104.22 537.552 -81.2673 546.928 -61.8069C551.589 -52.1338 553.425 -43.899 553.077 -36.7224C552.73 -29.5507 550.201 -23.4033 546.078 -17.9044C537.811 -6.88019 523.164 1.50868 506.902 10.2359C505.396 11.0439 503.877 11.8546 502.348 12.6704C487.397 20.6497 471.526 29.1196 458.432 40.2856C443.987 52.6041 432.895 68.2246 430.109 90.1228C427.323 112.018 433.97 131.314 444.6 148.907C453.972 164.416 466.46 178.63 478.334 192.145C479.92 193.95 481.494 195.743 483.049 197.524C496.27 212.67 508.038 226.999 513.069 241.464C515.58 248.683 516.408 255.926 514.902 263.316C513.395 270.707 509.547 278.277 502.658 286.136C476.905 315.519 478.812 348.548 480.45 376.905C480.581 379.176 480.711 381.417 480.824 383.624C481.59 398.536 481.621 411.834 476.613 422.352C471.624 432.827 461.595 440.617 442.039 444.389C422.536 448.151 404.45 442.399 387.144 431.007C369.83 419.609 353.324 402.582 337.006 383.84C330.268 376.101 323.556 368.063 316.834 360.013C307.299 348.593 297.743 337.149 288.062 326.5C271.546 308.331 254.601 292.399 236.617 282.694C207.19 266.815 179.848 266.114 155.338 265.485C149.91 265.345 144.622 265.21 139.48 264.913C125.286 264.096 112.217 262.061 100.367 255.414C88.5269 248.771 77.8611 237.498 68.5257 218.122C59.1175 198.596 47.0598 189.462 34.4225 185.421C22.2934 181.542 9.66373 182.369 -1.54777 183.104C-1.98807 183.133 -2.42619 183.161 -2.862 183.19C-8.64236 183.565 -14.0081 183.863 -18.7315 183.428C-23.4531 182.992 -27.4857 181.826 -30.6246 179.31C-33.7554 176.8 -36.0484 172.904 -37.2137 166.904C-38.3806 160.895 -38.4114 152.799 -37.0288 141.932Z" stroke="white" stroke-width="0.8"/>
</svg>
