<svg width="20" height="20" viewBox="0 0 20 20" fill="none" xmlns="http://www.w3.org/2000/svg">
<path fill-rule="evenodd" clip-rule="evenodd" d="M9 6.31592H2C1.05719 6.31592 0.585786 6.31592 0.292893 6.60881C0 6.9017 0 7.37311 0 8.31592V9.57908C0 10.5219 0 10.9933 0.292893 11.2862C0.585786 11.5791 1.05719 11.5791 2 11.5791H3.33333V11.6314H9V6.31592ZM3.33333 13.6314V18.0001C3.33333 18.9429 3.33333 19.4143 3.62623 19.7072C3.91912 20.0001 4.39052 20.0001 5.33333 20.0001H9V13.6314H3.33333ZM11 20.0001H14.6667C15.6095 20.0001 16.0809 20.0001 16.3738 19.7072C16.6667 19.4143 16.6667 18.9429 16.6667 18.0001V13.6314H11V20.0001ZM16.6667 11.6314V11.5791H18C18.9428 11.5791 19.4142 11.5791 19.7071 11.2862C20 10.9933 20 10.5219 20 9.57908V8.31592C20 7.37311 20 6.9017 19.7071 6.60881C19.4142 6.31592 18.9428 6.31592 18 6.31592H11V11.6314H16.6667Z" fill="#27014F"/>
<path d="M14.7382 5.17032L16.3799 4.65192C17.2119 4.38916 17.7776 3.60857 17.7776 2.73601C17.7776 1.38875 16.4688 0.41331 15.1841 0.819011C13.6005 1.3191 12.1512 2.17241 10.9456 3.31454L9.99981 4.21053V5.26316H14.136C14.3403 5.26316 14.5434 5.23185 14.7382 5.17032Z" fill="#27014F"/>
<path d="M5.26177 5.17032L3.62015 4.65192C2.78809 4.38916 2.22241 3.60857 2.22241 2.73601C2.22241 1.38875 3.53123 0.41331 4.81595 0.819011C6.39955 1.3191 7.84885 2.17241 9.05443 3.31454L10.0002 4.21053V5.26316H5.86403C5.65971 5.26316 5.4566 5.23185 5.26177 5.17032Z" fill="#27014F"/>
</svg>
