<svg width="24" height="24" viewBox="0 0 24 24" fill="none" xmlns="http://www.w3.org/2000/svg">
<ellipse cx="6" cy="6" rx="6" ry="6" transform="matrix(4.37114e-08 -1 -1 -4.37114e-08 21 18)" fill="#7E869E" fill-opacity="0.25"/>
<path d="M8.7 12C8.7 8.52061 11.5206 5.7 15 5.7C18.4794 5.7 21.3 8.52061 21.3 12C21.3 15.4794 18.4794 18.3 15 18.3C11.5206 18.3 8.7 15.4794 8.7 12Z" stroke="#7E869E" stroke-opacity="0.25" stroke-width="0.6"/>
<path d="M9 18.9282C10.2162 19.6303 11.5957 20 13 20C14.4043 20 15.7838 19.6303 17 18.9282C18.2162 18.2261 19.2261 17.2162 19.9282 16C20.6303 14.7838 21 13.4043 21 12C21 10.5957 20.6303 9.21615 19.9282 8C19.2261 6.78385 18.2162 5.77394 17 5.0718C15.7838 4.36965 14.4043 4 13 4C11.5957 4 10.2162 4.36965 9 5.0718" stroke="#27014F" stroke-width="1.5"/>
<path d="M3 12L2.41435 11.5315L2.03953 12L2.41435 12.4685L3 12ZM12 12.75C12.4142 12.75 12.75 12.4142 12.75 12C12.75 11.5858 12.4142 11.25 12 11.25V12.75ZM6.41435 6.53148L2.41435 11.5315L3.58565 12.4685L7.58565 7.46852L6.41435 6.53148ZM2.41435 12.4685L6.41435 17.4685L7.58565 16.5315L3.58565 11.5315L2.41435 12.4685ZM3 12.75H12V11.25H3V12.75Z" fill="#27014F"/>
</svg>
