<svg width="88" height="101" viewBox="0 0 88 101" fill="none" xmlns="http://www.w3.org/2000/svg">
<path d="M50.5 0C22.6543 0 0 22.6543 0 50.5V71.4221C0 76.5934 4.52985 80.8 10.1 80.8H15.15C16.4893 80.8 17.7738 80.268 18.7209 79.3209C19.6679 78.3738 20.2 77.0893 20.2 75.75V49.7779C20.2 48.4385 19.6679 47.154 18.7209 46.207C17.7738 45.2599 16.4893 44.7279 15.15 44.7279H10.5646C13.3724 25.1844 30.1889 10.1 50.5 10.1C70.8111 10.1 87.6276 25.1844 90.4354 44.7279H85.85C84.5107 44.7279 83.2262 45.2599 82.2791 46.207C81.3321 47.154 80.8 48.4385 80.8 49.7779V80.8C80.8 86.3702 76.2702 90.9 70.7 90.9H60.6V85.85H40.4V101H70.7C81.8403 101 90.9 91.9403 90.9 80.8C96.4702 80.8 101 76.5934 101 71.4221V50.5C101 22.6543 78.3457 0 50.5 0Z" fill="#9605C5" fill-opacity="0.05"/>
</svg>
