<svg width="87" height="107" viewBox="0 0 87 107" fill="none" xmlns="http://www.w3.org/2000/svg">
<path d="M81.7933 0.0550957C80.8714 0.154147 80.01 0.561423 79.3487 1.21092L53.5 27.0505L39.9974 13.5466C39.6083 13.158 39.1464 12.8497 38.6381 12.6395C38.1298 12.4293 37.5851 12.3212 37.035 12.3213C36.4848 12.3215 35.9402 12.43 35.432 12.6406C34.9239 12.8512 34.4622 13.1597 34.0733 13.5487C33.288 14.3341 32.847 15.3992 32.8474 16.5096C32.8476 17.0594 32.9562 17.6038 33.1669 18.1117C33.3775 18.6196 33.6863 19.0811 34.0754 19.4697L47.5821 32.9612H12.3462C9.07175 32.9612 5.93146 34.2613 3.6161 36.5755C1.30075 38.8896 0 42.0283 0 45.301L0 94.6602C0 97.9329 1.30075 101.072 3.6161 103.386C5.93146 105.7 9.07175 107 12.3462 107H94.6538C97.9282 107 101.069 105.7 103.384 103.386C105.699 101.072 107 97.9329 107 94.6602V45.301C107 42.0283 105.699 38.8896 103.384 36.5755C101.069 34.2613 97.9282 32.9612 94.6538 32.9612H59.4138L85.2667 7.1258C85.9143 6.52402 86.3508 5.72975 86.5114 4.86064C86.6721 3.99152 86.5484 3.0938 86.1587 2.30044C85.769 1.50709 85.1339 0.860297 84.3477 0.455879C83.5614 0.0514613 82.6657 -0.0890721 81.7933 0.0550957ZM43.2115 41.1877C73.8506 41.1877 78.1923 41.2741 78.1923 69.9806C78.1923 98.6912 73.5502 98.7735 43.2115 98.7735C12.733 98.7735 8.23077 98.4691 8.23077 69.9806C8.23077 41.5004 12.733 41.1877 43.2115 41.1877ZM92.5962 53.2725C96.1601 53.2725 99.0285 56.1354 99.0285 59.6974C99.0301 60.5422 98.8649 61.3789 98.5422 62.1596C98.2195 62.9404 97.7458 63.6498 97.1481 64.2471C96.5505 64.8444 95.8408 65.3179 95.0596 65.6404C94.2785 65.9629 93.4413 66.1281 92.5962 66.1265C91.751 66.1281 90.9138 65.9629 90.1327 65.6404C89.3515 65.3179 88.6418 64.8444 88.0442 64.2471C87.4465 63.6498 86.9728 62.9404 86.6501 62.1596C86.3275 61.3789 86.1622 60.5422 86.1638 59.6974C86.1622 58.8527 86.3275 58.016 86.6501 57.2352C86.9728 56.4545 87.4465 55.7451 88.0442 55.1478C88.6418 54.5505 89.3515 54.077 90.1327 53.7545C90.9138 53.432 91.751 53.2709 92.5962 53.2725ZM92.5962 69.7256C96.1601 69.7256 99.0285 72.5884 99.0285 76.1505C99.0301 76.9952 98.8649 77.832 98.5422 78.6127C98.2195 79.3935 97.7458 80.1028 97.1481 80.7001C96.5505 81.2975 95.8408 81.771 95.0596 82.0935C94.2785 82.416 93.4413 82.5812 92.5962 82.5795C91.751 82.5812 90.9138 82.416 90.1327 82.0935C89.3515 81.771 88.6418 81.2975 88.0442 80.7001C87.4465 80.1028 86.9728 79.3935 86.6501 78.6127C86.3275 77.832 86.1622 76.9952 86.1638 76.1505C86.1622 75.3058 86.3275 74.469 86.6501 73.6883C86.9728 72.9076 87.4465 72.1982 88.0442 71.6009C88.6418 71.0036 89.3515 70.5301 90.1327 70.2076C90.9138 69.885 91.751 69.724 92.5962 69.7256Z" fill="#9605C5" fill-opacity="0.05"/>
</svg>
