<svg width="91" height="91" viewBox="0 0 91 91" fill="none" xmlns="http://www.w3.org/2000/svg">
<circle cx="45.5" cy="45.5" r="45.5" fill="#F1C8FF" fill-opacity="0.7"/>
<g opacity="0.2">
<path d="M45.3669 22.6972C45.6018 22.5492 45.8737 22.4707 46.1513 22.4707C46.4289 22.4707 46.7008 22.5492 46.9356 22.6972L69.8743 37.1449C71.1222 37.9307 70.5659 39.8614 69.0885 39.8614H23.2111C21.7337 39.8614 21.1775 37.9307 22.4253 37.1449L45.3669 22.6972Z" fill="#8003A9"/>
<path fill-rule="evenodd" clip-rule="evenodd" d="M46.1498 29.1602L38.5036 33.9752H53.796L46.1498 29.1602ZM46.9356 22.6972C46.7008 22.5492 46.4289 22.4707 46.1513 22.4707C45.8737 22.4707 45.6018 22.5492 45.3669 22.6972L22.4253 37.1449C21.1774 37.9307 21.7337 39.8614 23.2111 39.8614H69.0885C70.5659 39.8614 71.1222 37.9307 69.8743 37.1449L46.9356 22.6972ZM21.1333 67.8211C21.1333 67.0405 21.4434 66.2919 21.9953 65.74C22.5473 65.188 23.2959 64.8779 24.0764 64.8779H68.2232C69.0038 64.8779 69.7524 65.188 70.3043 65.74C70.8563 66.2919 71.1663 67.0405 71.1663 67.8211C71.1663 68.6016 70.8563 69.3502 70.3043 69.9022C69.7524 70.4541 69.0038 70.7642 68.2232 70.7642H24.0764C23.2959 70.7642 22.5473 70.4541 21.9953 69.9022C21.4434 69.3502 21.1333 68.6016 21.1333 67.8211ZM28.4911 42.8045C29.2717 42.8045 30.0203 43.1146 30.5722 43.6666C31.1241 44.2185 31.4342 44.9671 31.4342 45.7477V60.4633C31.4342 61.2438 31.1241 61.9924 30.5722 62.5444C30.0203 63.0963 29.2717 63.4064 28.4911 63.4064C27.7105 63.4064 26.9619 63.0963 26.41 62.5444C25.8581 61.9924 25.548 61.2438 25.548 60.4633V45.7477C25.548 44.9671 25.8581 44.2185 26.41 43.6666C26.9619 43.1146 27.7105 42.8045 28.4911 42.8045ZM37.3205 42.8045C38.101 42.8045 38.8496 43.1146 39.4016 43.6666C39.9535 44.2185 40.2636 44.9671 40.2636 45.7477V60.4633C40.2636 61.2438 39.9535 61.9924 39.4016 62.5444C38.8496 63.0963 38.101 63.4064 37.3205 63.4064C36.5399 63.4064 35.7913 63.0963 35.2394 62.5444C34.6874 61.9924 34.3773 61.2438 34.3773 60.4633V45.7477C34.3773 44.9671 34.6874 44.2185 35.2394 43.6666C35.7913 43.1146 36.5399 42.8045 37.3205 42.8045ZM46.1498 42.8045C46.9304 42.8045 47.679 43.1146 48.2309 43.6666C48.7829 44.2185 49.0929 44.9671 49.0929 45.7477V60.4633C49.0929 61.2438 48.7829 61.9924 48.2309 62.5444C47.679 63.0963 46.9304 63.4064 46.1498 63.4064C45.3693 63.4064 44.6207 63.0963 44.0687 62.5444C43.5168 61.9924 43.2067 61.2438 43.2067 60.4633V45.7477C43.2067 44.9671 43.5168 44.2185 44.0687 43.6666C44.6207 43.1146 45.3693 42.8045 46.1498 42.8045ZM54.9792 42.8045C55.7597 42.8045 56.5083 43.1146 57.0603 43.6666C57.6122 44.2185 57.9223 44.9671 57.9223 45.7477V60.4633C57.9223 61.2438 57.6122 61.9924 57.0603 62.5444C56.5083 63.0963 55.7597 63.4064 54.9792 63.4064C54.1986 63.4064 53.45 63.0963 52.8981 62.5444C52.3461 61.9924 52.0361 61.2438 52.0361 60.4633V45.7477C52.0361 44.9671 52.3461 44.2185 52.8981 43.6666C53.45 43.1146 54.1986 42.8045 54.9792 42.8045ZM63.8085 42.8045C64.5891 42.8045 65.3377 43.1146 65.8896 43.6666C66.4416 44.2185 66.7516 44.9671 66.7516 45.7477V60.4633C66.7516 61.2438 66.4416 61.9924 65.8896 62.5444C65.3377 63.0963 64.5891 63.4064 63.8085 63.4064C63.028 63.4064 62.2794 63.0963 61.7274 62.5444C61.1755 61.9924 60.8654 61.2438 60.8654 60.4633V45.7477C60.8654 44.9671 61.1755 44.2185 61.7274 43.6666C62.2794 43.1146 63.028 42.8045 63.8085 42.8045Z" fill="#8003A9"/>
</g>
<path fill-rule="evenodd" clip-rule="evenodd" d="M45.414 24.2108L27.5728 35.4476H63.2552L45.414 24.2108ZM46.1998 21.2265C45.9649 21.0785 45.693 21 45.4154 21C45.1379 21 44.866 21.0785 44.6311 21.2265L21.6895 35.6742C20.4416 36.46 20.9979 38.3907 22.4753 38.3907H68.3526C69.8301 38.3907 70.3863 36.46 69.1385 35.6742L46.1998 21.2265ZM21.869 66.3504C21.869 65.9601 22.0241 65.5858 22.3 65.3098C22.576 65.0338 22.9503 64.8788 23.3406 64.8788H67.4874C67.8777 64.8788 68.252 65.0338 68.5279 65.3098C68.8039 65.5858 68.9589 65.9601 68.9589 66.3504C68.9589 66.7406 68.8039 67.1149 68.5279 67.3909C68.252 67.6669 67.8777 67.8219 67.4874 67.8219H23.3406C22.9503 67.8219 22.576 67.6669 22.3 67.3909C22.0241 67.1149 21.869 66.7406 21.869 66.3504ZM26.2837 41.3338C26.674 41.3338 27.0483 41.4889 27.3243 41.7649C27.6002 42.0408 27.7553 42.4151 27.7553 42.8054V60.4641C27.7553 60.8544 27.6002 61.2287 27.3243 61.5047C27.0483 61.7806 26.674 61.9357 26.2837 61.9357C25.8934 61.9357 25.5191 61.7806 25.2432 61.5047C24.9672 61.2287 24.8121 60.8544 24.8121 60.4641V42.8054C24.8121 42.4151 24.9672 42.0408 25.2432 41.7649C25.5191 41.4889 25.8934 41.3338 26.2837 41.3338ZM35.1131 41.3338C35.5033 41.3338 35.8776 41.4889 36.1536 41.7649C36.4296 42.0408 36.5846 42.4151 36.5846 42.8054V60.4641C36.5846 60.8544 36.4296 61.2287 36.1536 61.5047C35.8776 61.7806 35.5033 61.9357 35.1131 61.9357C34.7228 61.9357 34.3485 61.7806 34.0725 61.5047C33.7965 61.2287 33.6415 60.8544 33.6415 60.4641V42.8054C33.6415 42.4151 33.7965 42.0408 34.0725 41.7649C34.3485 41.4889 34.7228 41.3338 35.1131 41.3338ZM43.9424 41.3338C44.3327 41.3338 44.707 41.4889 44.983 41.7649C45.2589 42.0408 45.414 42.4151 45.414 42.8054V60.4641C45.414 60.8544 45.2589 61.2287 44.983 61.5047C44.707 61.7806 44.3327 61.9357 43.9424 61.9357C43.5521 61.9357 43.1778 61.7806 42.9019 61.5047C42.6259 61.2287 42.4709 60.8544 42.4709 60.4641V42.8054C42.4709 42.4151 42.6259 42.0408 42.9019 41.7649C43.1778 41.4889 43.5521 41.3338 43.9424 41.3338ZM52.7718 41.3338C53.1621 41.3338 53.5364 41.4889 53.8123 41.7649C54.0883 42.0408 54.2433 42.4151 54.2433 42.8054V60.4641C54.2433 60.8544 54.0883 61.2287 53.8123 61.5047C53.5364 61.7806 53.1621 61.9357 52.7718 61.9357C52.3815 61.9357 52.0072 61.7806 51.7312 61.5047C51.4553 61.2287 51.3002 60.8544 51.3002 60.4641V42.8054C51.3002 42.4151 51.4553 42.0408 51.7312 41.7649C52.0072 41.4889 52.3815 41.3338 52.7718 41.3338ZM61.6011 41.3338C61.9914 41.3338 62.3657 41.4889 62.6417 41.7649C62.9177 42.0408 63.0727 42.4151 63.0727 42.8054V60.4641C63.0727 60.8544 62.9177 61.2287 62.6417 61.5047C62.3657 61.7806 61.9914 61.9357 61.6011 61.9357C61.2108 61.9357 60.8366 61.7806 60.5606 61.5047C60.2846 61.2287 60.1296 60.8544 60.1296 60.4641V42.8054C60.1296 42.4151 60.2846 42.0408 60.5606 41.7649C60.8366 41.4889 61.2108 41.3338 61.6011 41.3338Z" fill="#8003A9"/>
</svg>
