<svg width="25" height="25" viewBox="0 0 25 25" fill="none" xmlns="http://www.w3.org/2000/svg">
<g clip-path="url(#clip0_627_1723)">
<mask id="mask0_627_1723" style="mask-type:luminance" maskUnits="userSpaceOnUse" x="0" y="0" width="25" height="25">
<path d="M0 0H25V25H0V0Z" fill="white"/>
</mask>
<g mask="url(#mask0_627_1723)">
<path d="M11.8594 15.9113C13.0167 15.9072 15.5469 15.8978 15.5177 14.2884C15.4896 12.6426 13.0594 12.7415 11.875 12.7905C11.7417 12.7968 11.6264 12.8006 11.5292 12.802L11.5834 15.9134C11.6625 15.9113 11.7545 15.9106 11.8594 15.9113ZM11.7365 11.377C12.7021 11.3759 14.8094 11.3738 14.7844 9.9103C14.7573 8.41342 12.7334 8.50197 11.7448 8.54572C11.6337 8.55127 11.5372 8.55474 11.4552 8.55613L11.5042 11.378L11.7365 11.377Z" fill="#9605C5"/>
<path fill-rule="evenodd" clip-rule="evenodd" d="M9.47498 24.626C16.1729 26.2958 22.9562 22.2198 24.626 15.5239C26.2958 8.82706 22.2187 2.04372 15.5208 0.374973C8.82706 -1.29586 2.04373 2.78122 0.374979 9.47914C-1.29481 16.175 2.78123 22.9583 9.47602 24.6271M13.9364 6.89789C15.7635 7.02706 17.2177 7.56247 17.4083 9.23331C17.55 10.4562 17.05 11.201 16.2385 11.6323C17.5927 11.9323 18.4521 12.7187 18.3166 14.5187C18.1489 16.7531 16.4958 17.3812 14.1229 17.5594L14.1625 19.9031L12.75 19.9281L12.7094 17.6156C12.3441 17.6225 11.9677 17.6253 11.5802 17.6239L11.6219 19.9468L10.2094 19.9719L10.1677 17.6239L9.76873 17.6271C9.56595 17.6271 9.36248 17.6291 9.15831 17.6333L7.31873 17.6646L7.56977 15.9729C7.56977 15.9729 8.6156 15.9708 8.59685 15.9552C8.99685 15.9468 9.0979 15.6583 9.11977 15.4771L9.05519 11.7708L9.15623 11.7687H9.20415C9.15439 11.7627 9.10426 11.7603 9.05415 11.7614L9.00831 9.1156C8.94894 8.83018 8.75727 8.50101 8.1854 8.51143C8.20102 8.4906 7.15831 8.52914 7.15831 8.52914L7.13123 7.02081L9.08123 6.98747V6.99477C9.37498 6.98921 9.67463 6.98018 9.98019 6.96768L9.9406 4.64581L11.3531 4.62185L11.3927 6.89685C11.7698 6.88331 12.1489 6.86872 12.5208 6.86247L12.4812 4.60206L13.8948 4.57706L13.9364 6.89789Z" fill="#9605C5"/>
</g>
</g>
<defs>
<clipPath id="clip0_627_1723">
<rect width="25" height="25" fill="white"/>
</clipPath>
</defs>
</svg>
