<svg width="25" height="25" viewBox="0 0 25 25" fill="none" xmlns="http://www.w3.org/2000/svg">
<path d="M12.5 2.08325C6.75623 2.08325 2.08331 6.75617 2.08331 12.4999V16.8155C2.08331 17.8822 3.01769 18.7499 4.16665 18.7499H5.20831C5.48458 18.7499 5.74953 18.6402 5.94488 18.4448C6.14023 18.2495 6.24998 17.9845 6.24998 17.7083V12.351C6.24998 12.0747 6.14023 11.8097 5.94488 11.6144C5.74953 11.419 5.48458 11.3093 5.20831 11.3093H4.26248C4.84165 7.27804 8.3104 4.16659 12.5 4.16659C16.6896 4.16659 20.1583 7.27804 20.7375 11.3093H19.7916C19.5154 11.3093 19.2504 11.419 19.0551 11.6144C18.8597 11.8097 18.75 12.0747 18.75 12.351V18.7499C18.75 19.8989 17.8156 20.8333 16.6666 20.8333H14.5833V19.7916H10.4166V22.9166H16.6666C18.9646 22.9166 20.8333 21.0478 20.8333 18.7499C21.9823 18.7499 22.9166 17.8822 22.9166 16.8155V12.4999C22.9166 6.75617 18.2437 2.08325 12.5 2.08325Z" fill="#9605C5"/>
</svg>
