<svg width="25" height="25" viewBox="0 0 25 25" fill="none" xmlns="http://www.w3.org/2000/svg">
<path d="M7.8125 3H4.29688C3.15727 3 2.06435 3.45874 1.25853 4.27531C0.452705 5.09187 0 6.19937 0 7.35417V10.9167H3.54375C3.19985 10.313 3.06213 9.61117 3.15194 8.92008C3.24175 8.22899 3.55407 7.58724 4.04048 7.09435C4.52689 6.60146 5.16019 6.28497 5.84219 6.19396C6.52418 6.10296 7.21675 6.24252 7.8125 6.591V3ZM9.375 9.33333V10.9167H10.9375C11.2465 10.9167 11.5486 10.8238 11.8056 10.6498C12.0625 10.4758 12.2628 10.2286 12.3811 9.93925C12.4993 9.64993 12.5303 9.33158 12.47 9.02444C12.4097 8.7173 12.2609 8.43518 12.0424 8.21375C11.8238 7.99231 11.5454 7.84152 11.2423 7.78042C10.9392 7.71933 10.6251 7.75069 10.3396 7.87052C10.054 7.99036 9.81002 8.1933 9.63833 8.45368C9.46664 8.71406 9.375 9.02018 9.375 9.33333ZM13.6438 10.9167C13.9876 10.313 14.1254 9.61117 14.0356 8.92008C13.9458 8.22899 13.6334 7.58724 13.147 7.09435C12.6606 6.60146 12.0273 6.28497 11.3453 6.19396C10.6633 6.10296 9.97075 6.24252 9.375 6.591V3H20.7031C21.8427 3 22.9357 3.45874 23.7415 4.27531C24.5473 5.09187 25 6.19937 25 7.35417V10.9167H13.6438ZM10.4797 12.5L13.0531 15.1062C13.1998 15.2548 13.2822 15.4564 13.2822 15.6667C13.2822 15.8769 13.1998 16.0785 13.0531 16.2272C12.9064 16.3758 12.7075 16.4593 12.5 16.4593C12.2925 16.4593 12.0936 16.3758 11.9469 16.2272L9.375 13.6194V22H20.7031C21.8427 22 22.9357 21.5413 23.7415 20.7247C24.5473 19.9081 25 18.8006 25 17.6458V12.5H10.4797ZM7.8125 22V13.6194L5.24063 16.2272C5.09393 16.3758 4.89496 16.4593 4.6875 16.4593C4.48004 16.4593 4.28107 16.3758 4.13437 16.2272C3.98768 16.0785 3.90526 15.8769 3.90526 15.6667C3.90526 15.4564 3.98768 15.2548 4.13437 15.1062L6.70781 12.5H0V17.6458C0 18.8006 0.452705 19.9081 1.25853 20.7247C2.06435 21.5413 3.15727 22 4.29688 22H7.8125ZM7.8125 9.33333C7.8125 9.02018 7.72086 8.71406 7.54917 8.45368C7.37748 8.1933 7.13345 7.99036 6.84794 7.87052C6.56243 7.75069 6.24827 7.71933 5.94517 7.78042C5.64208 7.84152 5.36367 7.99231 5.14515 8.21375C4.92663 8.43518 4.77781 8.7173 4.71752 9.02444C4.65723 9.33158 4.68818 9.64993 4.80644 9.93925C4.9247 10.2286 5.12497 10.4758 5.38192 10.6498C5.63887 10.8238 5.94097 10.9167 6.25 10.9167H7.8125V9.33333Z" fill="#9605C5"/>
</svg>
