<svg width="25" height="25" viewBox="0 0 25 25" fill="none" xmlns="http://www.w3.org/2000/svg">
<path d="M16.1458 1.04175H7.81248C7.12181 1.04175 6.45943 1.31611 5.97106 1.80449C5.48268 2.29287 5.20831 2.95525 5.20831 3.64592V21.3542C5.20831 22.0449 5.48268 22.7073 5.97106 23.1957C6.45943 23.684 7.12181 23.9584 7.81248 23.9584H16.1458C16.8365 23.9584 17.4989 23.684 17.9872 23.1957C18.4756 22.7073 18.75 22.0449 18.75 21.3542V3.64592C18.75 2.95525 18.4756 2.29287 17.9872 1.80449C17.4989 1.31611 16.8365 1.04175 16.1458 1.04175ZM11.9791 22.9167C11.1146 22.9167 10.4166 22.2188 10.4166 21.3542C10.4166 20.4897 11.1146 19.7917 11.9791 19.7917C12.8437 19.7917 13.5416 20.4897 13.5416 21.3542C13.5416 22.2188 12.8437 22.9167 11.9791 22.9167ZM16.6666 18.7501H7.29165V4.16675H16.6666V18.7501Z" fill="#9605C5"/>
</svg>
