<svg width="25" height="25" viewBox="0 0 25 25" fill="none" xmlns="http://www.w3.org/2000/svg">
<path d="M10.1562 22.6563H14.8437V24.2188H10.1562V22.6563ZM9.37499 20.3125H15.625V21.875H9.37499V20.3125ZM18.0381 3.06106C16.5698 1.59084 14.603 0.781272 12.5 0.781272C11.4734 0.778825 10.4563 0.979231 9.50738 1.37098C8.55842 1.76273 7.69621 2.3381 6.97026 3.06404C6.24432 3.78999 5.66895 4.6522 5.2772 5.60116C4.88545 6.55013 4.68504 7.56713 4.68749 8.59377C4.68749 10.8701 5.56005 12.9995 7.08007 14.4356L7.29296 14.6353C8.17235 15.4575 9.37499 16.584 9.37499 17.5781V19.5313H11.7187V13.1402L9.55663 11.9141L10.4492 10.6309L12.5 11.7188L14.5161 10.6255L15.4487 11.8794L13.2812 13.1489V19.5313H15.625V17.5781C15.625 16.6074 16.8144 15.482 17.6831 14.6597L17.9228 14.4322C19.4863 12.9395 20.3125 10.9185 20.3125 8.59377C20.3177 7.56704 20.1193 6.54945 19.7289 5.59981C19.3386 4.65017 18.7639 3.7873 18.0381 3.06106Z" fill="#9605C5"/>
</svg>
