<svg width="25" height="25" viewBox="0 0 25 25" fill="none" xmlns="http://www.w3.org/2000/svg">
<path d="M14.1666 16.6667C14.6914 17.3664 15.4229 17.8831 16.2576 18.1439C17.0923 18.4046 17.988 18.3961 18.8176 18.1196C19.6472 17.8431 20.3688 17.3125 20.8802 16.603C21.3915 15.8936 21.6666 15.0413 21.6666 14.1667C21.6666 13.2267 21.3433 12.3684 20.8183 11.6717L20.8333 11.6667L12.5 1.66675L4.16665 11.6667L4.18165 11.6717C3.63422 12.3886 3.33629 13.2648 3.33331 14.1667C3.33331 15.0413 3.60847 15.8936 4.1198 16.603C4.63114 17.3125 5.35273 17.8431 6.18236 18.1196C7.012 18.3961 7.90761 18.4046 8.74234 18.1439C9.57708 17.8831 10.3086 17.3664 10.8333 16.6667L11.6666 15.5567V19.1667C11.6666 21.6667 7.49998 21.6667 7.49998 21.6667C7.27897 21.6667 7.067 21.7545 6.91072 21.9108C6.75444 22.0671 6.66665 22.2791 6.66665 22.5001C6.66665 22.7211 6.75444 22.9331 6.91072 23.0893C7.067 23.2456 7.27897 23.3334 7.49998 23.3334H17.5C17.721 23.3334 17.933 23.2456 18.0892 23.0893C18.2455 22.9331 18.3333 22.7211 18.3333 22.5001C18.3333 22.2791 18.2455 22.0671 18.0892 21.9108C17.933 21.7545 17.721 21.6667 17.5 21.6667C17.5 21.6667 13.3333 21.6667 13.3333 19.1667V15.5567L14.1666 16.6667Z" fill="#9605C5"/>
</svg>
