<svg width="25" height="25" viewBox="0 0 25 25" fill="none" xmlns="http://www.w3.org/2000/svg">
<path d="M12.5 21.25C13.8807 21.25 15 20.1307 15 18.75C15 17.3693 13.8807 16.25 12.5 16.25C11.1193 16.25 10 17.3693 10 18.75C10 20.1307 11.1193 21.25 12.5 21.25Z" fill="#9605C5"/>
<path d="M1.25 9.24993C2.65763 7.52082 4.38877 6.13599 6.32843 5.18743C8.26809 4.23887 10.3719 3.74829 12.5 3.74829C14.6281 3.74829 16.7319 4.23887 18.6716 5.18743C20.6112 6.13599 22.3424 7.52082 23.75 9.24993L21.875 10.9999C20.702 9.52353 19.2594 8.3411 17.643 7.53118C16.0266 6.72125 14.2734 6.30238 12.5 6.30238C10.7266 6.30238 8.97341 6.72125 7.35703 7.53118C5.74064 8.3411 4.29802 9.52353 3.125 10.9999L1.25 9.24993ZM5.875 13.2499C6.69637 12.2348 7.72035 11.4188 8.87543 10.8591C10.0305 10.2994 11.2888 10.0094 12.5625 10.0094C13.8362 10.0094 15.0945 10.2994 16.2496 10.8591C17.4047 11.4188 18.4286 12.2348 19.25 13.2499L17.5 14.9999C16.9144 14.2262 16.1723 13.6017 15.3285 13.1726C14.4848 12.7435 13.5609 12.5207 12.625 12.5207C11.6892 12.5207 10.7653 12.7435 9.92149 13.1726C9.07772 13.6017 8.33564 14.2262 7.75 14.9999L5.875 13.2499Z" fill="#9605C5"/>
</svg>
