<svg width="25" height="25" viewBox="0 0 25 25" fill="none" xmlns="http://www.w3.org/2000/svg">
<g clip-path="url(#clip0_627_1762)">
<path d="M19.1106 -5.99828e-05C18.8952 0.0230948 18.6939 0.118302 18.5394 0.270132L12.5 6.31052L9.34519 3.15379C9.25428 3.06293 9.14636 2.99088 9.0276 2.94173C8.90883 2.89259 8.78155 2.86732 8.65303 2.86736C8.5245 2.86741 8.39723 2.89277 8.27851 2.94199C8.15978 2.99122 8.05191 3.06335 7.96106 3.15427C7.77757 3.33788 7.67454 3.58686 7.67463 3.84643C7.67468 3.97496 7.70004 4.10222 7.74927 4.22095C7.79849 4.33968 7.87062 4.44755 7.96154 4.5384L11.1173 7.69225H2.88462C2.11957 7.69225 1.38585 7.99616 0.844884 8.53713C0.303914 9.0781 0 9.81182 0 10.5769L0 22.1153C0 22.8804 0.303914 23.6141 0.844884 24.1551C1.38585 24.696 2.11957 24.9999 2.88462 24.9999H22.1154C22.8804 24.9999 23.6141 24.696 24.1551 24.1551C24.6961 23.6141 25 22.8804 25 22.1153V10.5769C25 9.81182 24.6961 9.0781 24.1551 8.53713C23.6141 7.99616 22.8804 7.69225 22.1154 7.69225H13.8817L19.9221 1.65282C20.0734 1.51215 20.1754 1.32648 20.213 1.12331C20.2505 0.92014 20.2216 0.710284 20.1305 0.524824C20.0395 0.339365 19.8911 0.188168 19.7074 0.0936292C19.5237 -0.000909581 19.3144 -0.0337614 19.1106 -5.99828e-05ZM10.0962 9.61532C17.2548 9.61532 18.2692 9.63552 18.2692 16.3461C18.2692 23.0576 17.1846 23.0769 10.0962 23.0769C2.975 23.0769 1.92308 23.0057 1.92308 16.3461C1.92308 9.6884 2.975 9.61532 10.0962 9.61532ZM21.6346 12.4403C22.4673 12.4403 23.1375 13.1096 23.1375 13.9422C23.1379 14.1397 23.0993 14.3353 23.0239 14.5178C22.9485 14.7003 22.8378 14.8662 22.6982 15.0058C22.5585 15.1454 22.3927 15.2561 22.2102 15.3315C22.0277 15.4069 21.8321 15.4455 21.6346 15.4451C21.4371 15.4455 21.2415 15.4069 21.059 15.3315C20.8765 15.2561 20.7107 15.1454 20.5711 15.0058C20.4314 14.8662 20.3207 14.7003 20.2454 14.5178C20.17 14.3353 20.1313 14.1397 20.1317 13.9422C20.1313 13.7448 20.17 13.5492 20.2454 13.3667C20.3207 13.1842 20.4314 13.0183 20.5711 12.8787C20.7107 12.7391 20.8765 12.6284 21.059 12.553C21.2415 12.4776 21.4371 12.4399 21.6346 12.4403ZM21.6346 16.2865C22.4673 16.2865 23.1375 16.9557 23.1375 17.7884C23.1379 17.9859 23.0993 18.1815 23.0239 18.364C22.9485 18.5465 22.8378 18.7123 22.6982 18.8519C22.5585 18.9916 22.3927 19.1023 22.2102 19.1777C22.0277 19.2531 21.8321 19.2917 21.6346 19.2913C21.4371 19.2917 21.2415 19.2531 21.059 19.1777C20.8765 19.1023 20.7107 18.9916 20.5711 18.8519C20.4314 18.7123 20.3207 18.5465 20.2454 18.364C20.17 18.1815 20.1313 17.9859 20.1317 17.7884C20.1313 17.5909 20.17 17.3953 20.2454 17.2128C20.3207 17.0303 20.4314 16.8645 20.5711 16.7249C20.7107 16.5852 20.8765 16.4745 21.059 16.3991C21.2415 16.3238 21.4371 16.2861 21.6346 16.2865Z" fill="#9605C5"/>
</g>
<defs>
<clipPath id="clip0_627_1762">
<rect width="25" height="25" fill="white"/>
</clipPath>
</defs>
</svg>
