<svg width="20" height="20" viewBox="0 0 20 20" fill="none" xmlns="http://www.w3.org/2000/svg">
<path d="M7.81382 6.74179C7.34798 5.189 8.51073 3.62622 10.1319 3.62622C11.7531 3.62622 12.9158 5.18899 12.45 6.74179L11.1788 10.9792C11.1598 11.0423 11.1503 11.0739 11.1401 11.1018C11.0033 11.4756 10.6578 11.7327 10.2605 11.7563C10.2308 11.7581 10.1978 11.7581 10.1319 11.7581C10.066 11.7581 10.033 11.7581 10.0033 11.7563C9.60598 11.7327 9.26051 11.4756 9.12368 11.1018C9.11346 11.0739 9.10399 11.0423 9.08504 10.9792L7.81382 6.74179Z" fill="#FF3366" fill-opacity="0.2" stroke="#FF3366"/>
<ellipse cx="10.1319" cy="15.8241" rx="1.62637" ry="1.62637" fill="#FF3366" fill-opacity="0.2" stroke="#FF3366"/>
</svg>
