<svg width="43" height="43" viewBox="0 0 43 43" fill="none" xmlns="http://www.w3.org/2000/svg">
<circle cx="21.5" cy="21.5" r="21.5" fill="white"/>
<g opacity="0.2">
<path d="M21.443 11.7272C21.5437 11.6638 21.6602 11.6301 21.7792 11.6301C21.8982 11.6301 22.0147 11.6638 22.1153 11.7272L31.9462 17.9191C32.481 18.2559 32.2426 19.0833 31.6094 19.0833H11.9477C11.3145 19.0833 11.0761 18.2559 11.6109 17.9191L21.443 11.7272Z" fill="#8003A9"/>
<path fill-rule="evenodd" clip-rule="evenodd" d="M21.7785 14.4973L18.5015 16.5609H25.0554L21.7785 14.4973ZM22.1153 11.7274C22.0146 11.664 21.8981 11.6304 21.7791 11.6304C21.6602 11.6304 21.5436 11.664 21.443 11.7274L11.6109 17.9193C11.076 18.2561 11.3144 19.0835 11.9476 19.0835H31.6094C32.2425 19.0835 32.4809 18.2561 31.9461 17.9193L22.1153 11.7274ZM11.0571 31.0662C11.0571 30.7317 11.19 30.4109 11.4266 30.1743C11.6631 29.9378 11.9839 29.8049 12.3185 29.8049H31.2385C31.573 29.8049 31.8939 29.9378 32.1304 30.1743C32.367 30.4109 32.4999 30.7317 32.4999 31.0662C32.4999 31.4008 32.367 31.7216 32.1304 31.9581C31.8939 32.1947 31.573 32.3276 31.2385 32.3276H12.3185C11.9839 32.3276 11.6631 32.1947 11.4266 31.9581C11.19 31.7216 11.0571 31.4008 11.0571 31.0662ZM14.2105 20.3449C14.545 20.3449 14.8658 20.4778 15.1024 20.7143C15.3389 20.9509 15.4718 21.2717 15.4718 21.6062V27.9129C15.4718 28.2474 15.3389 28.5682 15.1024 28.8048C14.8658 29.0413 14.545 29.1742 14.2105 29.1742C13.8759 29.1742 13.5551 29.0413 13.3186 28.8048C13.082 28.5682 12.9491 28.2474 12.9491 27.9129V21.6062C12.9491 21.2717 13.082 20.9509 13.3186 20.7143C13.5551 20.4778 13.8759 20.3449 14.2105 20.3449ZM17.9945 20.3449C18.329 20.3449 18.6498 20.4778 18.8864 20.7143C19.1229 20.9509 19.2558 21.2717 19.2558 21.6062V27.9129C19.2558 28.2474 19.1229 28.5682 18.8864 28.8048C18.6498 29.0413 18.329 29.1742 17.9945 29.1742C17.66 29.1742 17.3391 29.0413 17.1026 28.8048C16.866 28.5682 16.7331 28.2474 16.7331 27.9129V21.6062C16.7331 21.2717 16.866 20.9509 17.1026 20.7143C17.3391 20.4778 17.66 20.3449 17.9945 20.3449ZM21.7785 20.3449C22.113 20.3449 22.4338 20.4778 22.6704 20.7143C22.9069 20.9509 23.0398 21.2717 23.0398 21.6062V27.9129C23.0398 28.2474 22.9069 28.5682 22.6704 28.8048C22.4338 29.0413 22.113 29.1742 21.7785 29.1742C21.444 29.1742 21.1231 29.0413 20.8866 28.8048C20.65 28.5682 20.5172 28.2474 20.5172 27.9129V21.6062C20.5172 21.2717 20.65 20.9509 20.8866 20.7143C21.1231 20.4778 21.444 20.3449 21.7785 20.3449ZM25.5625 20.3449C25.897 20.3449 26.2179 20.4778 26.4544 20.7143C26.6909 20.9509 26.8238 21.2717 26.8238 21.6062V27.9129C26.8238 28.2474 26.6909 28.5682 26.4544 28.8048C26.2179 29.0413 25.897 29.1742 25.5625 29.1742C25.228 29.1742 24.9071 29.0413 24.6706 28.8048C24.4341 28.5682 24.3012 28.2474 24.3012 27.9129V21.6062C24.3012 21.2717 24.4341 20.9509 24.6706 20.7143C24.9071 20.4778 25.228 20.3449 25.5625 20.3449ZM29.3465 20.3449C29.681 20.3449 30.0019 20.4778 30.2384 20.7143C30.475 20.9509 30.6078 21.2717 30.6078 21.6062V27.9129C30.6078 28.2474 30.475 28.5682 30.2384 28.8048C30.0019 29.0413 29.681 29.1742 29.3465 29.1742C29.012 29.1742 28.6912 29.0413 28.4546 28.8048C28.2181 28.5682 28.0852 28.2474 28.0852 27.9129V21.6062C28.0852 21.2717 28.2181 20.9509 28.4546 20.7143C28.6912 20.4778 29.012 20.3449 29.3465 20.3449Z" fill="#8003A9"/>
</g>
<path fill-rule="evenodd" clip-rule="evenodd" d="M21.4631 12.376L13.8169 17.1918H29.1094L21.4631 12.376ZM21.7999 11.0971C21.6993 11.0336 21.5827 11 21.4638 11C21.3448 11 21.2283 11.0336 21.1276 11.0971L11.2955 17.289C10.7607 17.6257 10.9991 18.4532 11.6323 18.4532H31.294C31.9272 18.4532 32.1656 17.6257 31.6308 17.289L21.7999 11.0971ZM11.3724 30.4359C11.3724 30.2686 11.4389 30.1082 11.5572 29.9899C11.6754 29.8716 11.8358 29.8052 12.0031 29.8052H30.9232C31.0904 29.8052 31.2508 29.8716 31.3691 29.9899C31.4874 30.1082 31.5538 30.2686 31.5538 30.4359C31.5538 30.6031 31.4874 30.7635 31.3691 30.8818C31.2508 31.0001 31.0904 31.0665 30.9232 31.0665H12.0031C11.8358 31.0665 11.6754 31.0001 11.5572 30.8818C11.4389 30.7635 11.3724 30.6031 11.3724 30.4359ZM13.2644 19.7145C13.4317 19.7145 13.5921 19.7809 13.7104 19.8992C13.8287 20.0175 13.8951 20.1779 13.8951 20.3452V27.9132C13.8951 28.0805 13.8287 28.2409 13.7104 28.3591C13.5921 28.4774 13.4317 28.5439 13.2644 28.5439C13.0972 28.5439 12.9368 28.4774 12.8185 28.3591C12.7002 28.2409 12.6338 28.0805 12.6338 27.9132V20.3452C12.6338 20.1779 12.7002 20.0175 12.8185 19.8992C12.9368 19.7809 13.0972 19.7145 13.2644 19.7145ZM17.0485 19.7145C17.2157 19.7145 17.3761 19.7809 17.4944 19.8992C17.6127 20.0175 17.6791 20.1779 17.6791 20.3452V27.9132C17.6791 28.0805 17.6127 28.2409 17.4944 28.3591C17.3761 28.4774 17.2157 28.5439 17.0485 28.5439C16.8812 28.5439 16.7208 28.4774 16.6025 28.3591C16.4842 28.2409 16.4178 28.0805 16.4178 27.9132V20.3452C16.4178 20.1779 16.4842 20.0175 16.6025 19.8992C16.7208 19.7809 16.8812 19.7145 17.0485 19.7145ZM20.8325 19.7145C20.9997 19.7145 21.1601 19.7809 21.2784 19.8992C21.3967 20.0175 21.4631 20.1779 21.4631 20.3452V27.9132C21.4631 28.0805 21.3967 28.2409 21.2784 28.3591C21.1601 28.4774 20.9997 28.5439 20.8325 28.5439C20.6652 28.5439 20.5048 28.4774 20.3865 28.3591C20.2682 28.2409 20.2018 28.0805 20.2018 27.9132V20.3452C20.2018 20.1779 20.2682 20.0175 20.3865 19.8992C20.5048 19.7809 20.6652 19.7145 20.8325 19.7145ZM24.6165 19.7145C24.7837 19.7145 24.9442 19.7809 25.0624 19.8992C25.1807 20.0175 25.2471 20.1779 25.2471 20.3452V27.9132C25.2471 28.0805 25.1807 28.2409 25.0624 28.3591C24.9442 28.4774 24.7837 28.5439 24.6165 28.5439C24.4492 28.5439 24.2888 28.4774 24.1705 28.3591C24.0523 28.2409 23.9858 28.0805 23.9858 27.9132V20.3452C23.9858 20.1779 24.0523 20.0175 24.1705 19.8992C24.2888 19.7809 24.4492 19.7145 24.6165 19.7145ZM28.4005 19.7145C28.5678 19.7145 28.7282 19.7809 28.8464 19.8992C28.9647 20.0175 29.0312 20.1779 29.0312 20.3452V27.9132C29.0312 28.0805 28.9647 28.2409 28.8464 28.3591C28.7282 28.4774 28.5678 28.5439 28.4005 28.5439C28.2332 28.5439 28.0728 28.4774 27.9545 28.3591C27.8363 28.2409 27.7698 28.0805 27.7698 27.9132V20.3452C27.7698 20.1779 27.8363 20.0175 27.9545 19.8992C28.0728 19.7809 28.2332 19.7145 28.4005 19.7145Z" fill="#8003A9"/>
</svg>
