<svg width="150" height="156" viewBox="0 0 150 156" fill="none" xmlns="http://www.w3.org/2000/svg">
<path d="M147.574 64.0046H0V81.8332H147.574V64.0046Z" fill="#F1C8FF"/>
<path fill-rule="evenodd" clip-rule="evenodd" d="M72.1321 70.3783C72.7727 70.5902 73.4433 70.6956 74.1174 70.6903C76.2311 70.7085 78.2248 69.6988 79.4748 67.9767C80.7249 66.2545 81.0789 64.0299 80.4262 61.9988C78.2645 55.0903 67.0586 20.2799 58.8968 12.0342C48.7875 2.6074 33.1149 2.9243 23.387 12.7523C13.6591 22.5803 13.3454 38.4141 22.6762 48.6274C30.8821 56.8731 65.2939 68.1943 72.1321 70.3783ZM29.2976 25.5274C31.2284 20.8555 35.7534 17.8175 40.7645 17.8285C44.0254 17.8401 47.1496 19.1538 49.4556 21.4834C52.4556 24.5143 58.3233 38.6434 63.5292 53.3965C48.9262 48.0925 34.9409 42.2091 31.9409 39.1783C28.41 35.5858 27.3668 30.1991 29.2976 25.5274Z" fill="#F1C8FF"/>
<path fill-rule="evenodd" clip-rule="evenodd" d="M68.7605 67.9768C70.0105 69.6988 72.004 70.7086 74.1179 70.6903C74.8063 70.6959 75.4915 70.5905 76.1473 70.3783C82.9855 68.1943 117.441 56.8732 125.603 48.6274C132.512 42.1846 135.375 32.4375 133.063 23.23C130.751 14.0227 123.635 6.83323 114.521 4.49731C105.408 2.16142 95.7596 5.05403 89.3826 12.0343C81.0444 20.28 69.9708 55.0903 67.8091 61.9989C67.1563 64.0302 67.5104 66.2545 68.7605 67.9768ZM98.6473 21.4834C100.98 19.1125 104.162 17.7945 107.471 17.8286H107.393C112.382 17.8395 116.881 20.8724 118.805 25.5274C120.736 30.1992 119.693 35.5858 116.162 39.1783C113.162 42.2092 99.1767 48.1817 84.5738 53.3966C89.8238 38.6434 95.6473 24.5143 98.6473 21.4834Z" fill="#F1C8FF"/>
<path d="M134.824 95.2046H80.3823V154.485H134.824V95.2046Z" fill="#F1C8FF"/>
<path d="M13.2355 95.2046H13.1914V154.485H67.1473V95.2046H13.2355Z" fill="#8003A9"/>
</svg>
