<svg width="69" height="69" viewBox="0 0 69 69" fill="none" xmlns="http://www.w3.org/2000/svg">
<ellipse cx="34.476" cy="34.5143" rx="33.7651" ry="33.7789" fill="#9605C5" fill-opacity="0.05"/>
<path opacity="0.5" d="M30.4856 26.2229C30.4856 23.6127 32.4808 21.6167 35.0899 21.6167C37.699 21.6167 39.6942 23.6127 39.6942 26.2229V29.2937H42.7638V26.2229C42.7638 21.9238 39.3873 18.5459 35.0899 18.5459C30.7925 18.5459 27.416 21.9238 27.416 26.2229V29.2937H30.4856V26.2229ZM37.3921 37.7385C37.3921 36.5102 36.3177 35.4354 35.0899 35.4354C33.8621 35.4354 32.7877 36.5102 32.7877 37.7385C32.7877 38.3526 33.0947 38.9668 33.5551 39.4274V41.577C33.5551 42.4982 34.169 43.1124 35.0899 43.1124C36.0108 43.1124 36.6247 42.4982 36.6247 41.577V39.4274C37.0851 38.9668 37.3921 38.3526 37.3921 37.7385Z" fill="#8003A9"/>
<path d="M42.7636 29.2939H27.4158C24.8067 29.2939 22.8115 31.29 22.8115 33.9002V44.648C22.8115 47.2582 24.8067 49.2542 27.4158 49.2542H42.7636C45.3727 49.2542 47.3679 47.2582 47.3679 44.648V33.9002C47.3679 31.29 45.3727 29.2939 42.7636 29.2939ZM36.6245 39.4276V41.5772C36.6245 42.4984 36.0106 43.1126 35.0897 43.1126C34.1689 43.1126 33.555 42.4984 33.555 41.5772V39.4276C33.0945 38.967 32.7876 38.3528 32.7876 37.7387C32.7876 36.5104 33.8619 35.4356 35.0897 35.4356C36.3175 35.4356 37.3919 36.5104 37.3919 37.7387C37.3919 38.3528 37.0849 38.967 36.6245 39.4276Z" fill="#8003A9"/>
</svg>
