<svg width="48" height="48" viewBox="0 0 48 48" fill="none" xmlns="http://www.w3.org/2000/svg">
<g clip-path="url(#clip0_1345_2076)">
<path d="M24 47C36.7025 47 47 36.7025 47 24C47 11.2975 36.7025 1 24 1C11.2975 1 1 11.2975 1 24C1 36.7025 11.2975 47 24 47Z" fill="#FFCB00" stroke="white" stroke-width="2"/>
<mask id="mask0_1345_2076" style="mask-type:luminance" maskUnits="userSpaceOnUse" x="7" y="15" width="34" height="18">
<path d="M40.0889 15.96H7.85742V32.0758H40.0889V15.96Z" fill="white"/>
</mask>
<g mask="url(#mask0_1345_2076)">
<path d="M23.9732 15.96C15.0728 15.96 7.85742 19.5677 7.85742 24.0178C7.85742 28.468 15.0728 32.0756 23.9732 32.0756C32.8736 32.0756 40.0889 28.468 40.0889 24.0178C40.0889 19.5676 32.8736 15.96 23.9732 15.96ZM23.9732 30.8035C15.7753 30.8035 9.12959 27.7655 9.12959 24.0178C9.12959 20.2701 15.7753 17.2321 23.9732 17.2321C32.1711 17.2321 38.8168 20.2701 38.8168 24.0178C38.8168 27.7655 32.171 30.8035 23.9732 30.8035ZM21.9408 22.6042V21.3318H26.4872V22.6042H24.8505V26.7038H23.5778V22.6042H21.9408ZM31.9751 21.3318V26.7039H30.703L28.3957 23.5059V26.7039H27.1235V21.3318H28.3956L30.7029 24.5298V21.3318H31.9751ZM15.9334 26.7039V21.3318H17.2055L18.6189 23.5059L20.0323 21.3318H21.304V26.7039H20.0323V23.6653L19.0674 25.1485H18.1705L17.2055 23.6653V26.7039H15.9334Z" fill="black"/>
</g>
</g>
<defs>
<clipPath id="clip0_1345_2076">
<rect width="48" height="48" fill="white"/>
</clipPath>
</defs>
</svg>
